<svg width="40" height="40" viewBox="0 0 40 40" fill="none" xmlns="http://www.w3.org/2000/svg">
<path fill-rule="evenodd" clip-rule="evenodd" d="M36.4286 22.1429V0.714286H26.4286V22.1429H29.2857H32.8571H36.4286ZM14.2857 0.714286H25.7143V22.1429H21.4286H18.5714H14.2857V0.714286ZM13.5714 0.714286V22.1429H10.7143H7.14286H3.57143L3.57143 0.714286H13.5714ZM14.2857 36.4286V22.8571H17.8571V36.4286H14.2857ZM18.5714 36.4286V22.8571H21.4286V36.4286H18.5714ZM22.1429 36.4286V22.8571H25.7143V36.4286H22.1429ZM25.7143 0H14.2857H3.57143C3.17694 0 2.85714 0.319797 2.85714 0.714286V22.1429C2.48194 22.1429 2.11041 22.2168 1.76376 22.3603C1.41712 22.5039 1.10215 22.7144 0.836838 22.9797C0.571528 23.245 0.361072 23.56 0.217487 23.9066C0.119547 24.1431 0.0540287 24.3911 0.0222699 24.644C-0.00229687 24.8396 0.159817 25 0.356961 25C0.554105 25 0.710896 24.8391 0.74358 24.6447C0.77033 24.4856 0.815026 24.3296 0.877064 24.1798C0.984771 23.9198 1.14264 23.6835 1.34166 23.4845C1.54067 23.2855 1.77694 23.1276 2.03697 23.0199C2.297 22.9122 2.57569 22.8568 2.85714 22.8568V36.4286H0.714286C0.319797 36.4286 0 36.7484 0 37.1429V39.2857C0 39.6802 0.319796 40 0.714285 40H39.2857C39.6802 40 40 39.6802 40 39.2857V37.1429C40 36.7484 39.6802 36.4286 39.2857 36.4286H37.1429V22.8568C37.4243 22.8568 37.703 22.9122 37.963 23.0199C38.2231 23.1276 38.4593 23.2855 38.6583 23.4845C38.8574 23.6835 39.0152 23.9198 39.1229 24.1798C39.185 24.3296 39.2297 24.4856 39.2564 24.6447C39.2891 24.8391 39.4459 25 39.643 25C39.8402 25 40.0023 24.8396 39.9777 24.644C39.946 24.3911 39.8805 24.1431 39.7825 23.9066C39.6389 23.56 39.4285 23.245 39.1632 22.9797C38.8979 22.7144 38.5829 22.5039 38.2362 22.3603C37.8896 22.2168 37.5181 22.1429 37.1429 22.1429V0.714286C37.1429 0.319797 36.8231 0 36.4286 0H25.7143ZM36.4286 36.4286V22.8571H33.5714V36.4286H36.4286ZM32.8571 22.8571V36.4286H30V22.8571H32.8571ZM29.2857 22.8571H26.4286V36.4286H29.2857V22.8571ZM13.5714 22.8571V36.4286H10.7143V22.8571H13.5714ZM10 22.8571H7.14286V36.4286H10V22.8571ZM6.42857 22.8571H3.57143V36.4286H6.42857V22.8571ZM18.5714 37.1429H21.4286H25.7143H29.2857H32.8571H36.4286H39.2857V39.2857H0.714285L0.714286 37.1429H3.57143H7.14286H10.7143H14.2857H18.5714ZM5.71431 3.2143C5.71431 3.01706 5.87421 2.85716 6.07146 2.85716H8.9286C9.12584 2.85716 9.28574 3.01706 9.28574 3.2143C9.28574 3.41154 9.12584 3.57144 8.9286 3.57144H6.4286V7.50001C6.4286 7.69726 6.2687 7.85716 6.07146 7.85716C5.87421 7.85716 5.71431 7.69726 5.71431 7.50001V3.2143Z" fill="#978D80"/>
</svg>
