<svg width="40" height="40" viewBox="0 0 40 40" fill="none" xmlns="http://www.w3.org/2000/svg">
<path fill-rule="evenodd" clip-rule="evenodd" d="M9.81818 5C9.41652 5 9.09091 5.3198 9.09091 5.71429V17.1429C9.09091 17.5373 9.41652 17.8571 9.81818 17.8571H17.8182C18.2198 17.8571 18.5455 17.5373 18.5455 17.1429V5.71429C18.5455 5.3198 18.2198 5 17.8182 5H9.81818ZM17.8182 5.71429H9.81818V17.1429H17.8182V5.71429Z" fill="#978D80"/>
<path fill-rule="evenodd" clip-rule="evenodd" d="M21.4545 5.71429C21.4545 5.3198 21.7802 5 22.1818 5H30.1818C30.5835 5 30.9091 5.3198 30.9091 5.71429V17.1429C30.9091 17.5373 30.5835 17.8571 30.1818 17.8571H22.1818C21.7802 17.8571 21.4545 17.5373 21.4545 17.1429V5.71429ZM22.1818 5.71429H30.1818V17.1429H22.1818V5.71429Z" fill="#978D80"/>
<path fill-rule="evenodd" clip-rule="evenodd" d="M9.81818 21.4286C9.41652 21.4286 9.09091 21.7484 9.09091 22.1429V34.2857C9.09091 34.6802 9.41652 35 9.81818 35H17.8182C18.2198 35 18.5455 34.6802 18.5455 34.2857V22.1429C18.5455 21.7484 18.2198 21.4286 17.8182 21.4286H9.81818ZM17.8182 22.1429H9.81818V34.2857H17.8182V22.1429Z" fill="#978D80"/>
<path fill-rule="evenodd" clip-rule="evenodd" d="M21.4545 22.1429C21.4545 21.7484 21.7802 21.4286 22.1818 21.4286H30.1818C30.5835 21.4286 30.9091 21.7484 30.9091 22.1429V34.2857C30.9091 34.6802 30.5835 35 30.1818 35H22.1818C21.7802 35 21.4545 34.6802 21.4545 34.2857V22.1429ZM22.1818 22.1429H30.1818V34.2857H22.1818V22.1429Z" fill="#978D80"/>
<path fill-rule="evenodd" clip-rule="evenodd" d="M30.5455 18.5714C29.943 18.5714 29.4545 19.0511 29.4545 19.6429C29.4545 20.2346 29.943 20.7143 30.5455 20.7143C31.1479 20.7143 31.6364 20.2346 31.6364 19.6429C31.6364 19.0511 31.1479 18.5714 30.5455 18.5714ZM30.1818 19.6429C30.1818 19.8401 30.3446 20 30.5455 20C30.7463 20 30.9091 19.8401 30.9091 19.6429C30.9091 19.4456 30.7463 19.2857 30.5455 19.2857C30.3446 19.2857 30.1818 19.4456 30.1818 19.6429Z" fill="#978D80"/>
<path fill-rule="evenodd" clip-rule="evenodd" d="M6.18182 2.85714L4.72727 2.85714C4.32561 2.85714 4 2.53735 4 2.14286V0.714286C4 0.319797 4.32561 0 4.72727 0H35.2727C35.6744 0 36 0.319797 36 0.714286V2.14286C36 2.53735 35.6744 2.85714 35.2727 2.85714H33.8182V37.1429H35.2727C35.6744 37.1429 36 37.4627 36 37.8571V39.2857C36 39.6802 35.6744 40 35.2727 40H4.72727C4.32561 40 4 39.6802 4 39.2857V37.8571C4 37.4627 4.32561 37.1429 4.72727 37.1429H6.18182V33.5714C5.78016 33.5714 5.45455 33.2516 5.45455 32.8571V29.2857C5.45455 28.8912 5.78016 28.5714 6.18182 28.5714V11.4286C5.78016 11.4286 5.45455 11.1088 5.45455 10.7143V7.14286C5.45455 6.74837 5.78016 6.42857 6.18182 6.42857V2.85714ZM4.72727 0.714286H35.2727V2.14286H4.72727V0.714286ZM6.90909 29.2851L6.90909 32.8571L6.90909 37.1429H33.0909V2.85714L6.90909 2.85714L6.90909 29.2851ZM4.72727 37.8571V39.2857H35.2727V37.8571H4.72727Z" fill="#978D80"/>
</svg>
