<?xml version="1.0" encoding="utf-8" ?>
<svg xmlns="http://www.w3.org/2000/svg" xmlns:xlink="http://www.w3.org/1999/xlink" width="1024" height="1024">
	<path fill="#1F1E1F" d="M656.908 101.298C655.232 96.1912 653.961 79.1519 656.751 74.6279C657.039 74.161 657.307 73.9647 657.692 73.6249C673.707 72.5302 692.389 73.4895 708.739 73.4622L812.505 73.3913L914.068 73.5875C931.991 73.5716 950.455 72.5023 968.306 73.6488C969.465 82.525 969.936 92.5472 968.026 101.356C962.175 102.17 956.19 101.922 950.303 101.691C950.246 106.509 951.315 123.648 948.217 126.635C947.242 127.574 946.218 128.05 944.9 128.311C940.581 129.167 925.485 128.358 920.136 128.195C925.27 131.227 930.576 134.015 935.44 137.475C951.215 148.699 970.106 167.977 975.001 186.965C979.415 204.087 976.437 223.201 967.413 238.342C959.704 251.445 947.082 260.928 932.35 264.684C926.863 266.005 921.23 266.627 915.587 266.534C915.56 276.916 915.859 287.45 915.301 297.809C915.076 301.98 913.573 305.758 913.68 310.003C914.629 347.747 913.942 385.67 913.951 423.434L913.855 626.461L913.554 712.885C913.551 726.649 912.709 741.351 913.885 755.003C933.773 756.082 948.659 761.527 962.351 776.651C973.566 789.04 977.849 804.778 976.918 821.257C975.537 845.684 960.601 865.748 942.905 881.518C937.4 886.424 931.249 890.94 924.998 894.869C930.159 894.368 943.786 892.61 947.842 895.947C950.284 897.956 950.264 901.715 950.252 904.594L950.035 920.774C954.248 920.681 963.98 919.098 967.099 921.587C968.968 923.078 969.307 925.994 969.353 928.218C969.504 935.355 969.443 943.195 968.072 950.216L775.918 950.505L707.043 950.522C692.7 950.54 678.332 950.804 663.995 950.36C662.092 950.302 658.824 950.529 657.312 949.436C655.655 945.137 655.309 928.043 657.205 923.953C657.905 922.442 659.1 921.446 660.703 920.986C664.884 919.789 671.429 920.839 675.802 920.922C675.669 915.808 674.153 898.839 676.881 895.305C683.57 893.474 691.903 894.774 698.846 894.799L733.965 894.789C743.747 894.858 753.899 895.489 763.574 893.785C780.287 890.841 795.694 877.193 803.862 862.807C808.169 855.222 810.74 847.298 811.285 838.588C816.353 858.139 822.788 875.813 841.044 886.621C846.012 889.562 851.416 891.88 857.075 893.086C871.063 896.068 901.336 895.703 914.999 892.095C934.442 886.96 953.158 867.222 962.82 850.288C971.493 835.088 974.703 817.647 969.926 800.582C965.776 785.757 954.788 774.364 941.509 767.043C929.863 760.621 916.913 758.143 903.986 761.973C890.464 765.979 879.744 776.286 873.185 788.558C867.074 799.99 864.61 813.577 868.543 826.124C872.598 839.06 882.163 851.085 894.291 857.293C906.632 863.611 918.799 863.314 932.115 861.06C921.621 866.997 913.615 869.53 901.684 866.138C889.007 862.534 878.409 852.813 870.523 842.599C866.514 848.662 861.253 852.502 854.099 854.048C846.57 855.674 837.113 855.119 830.672 850.678C825.952 847.458 822.742 842.46 821.774 836.829C820.561 829.71 822.835 823.716 826.352 817.721C821.248 815.121 816.806 811.899 813.019 807.567C808.584 812.309 804.355 815.436 798.508 818.245C802.135 824.41 804.276 830.743 802.506 837.969C801.189 843.361 797.746 847.99 792.962 850.803C785.372 855.358 774.333 855.577 765.957 853.282C760.564 851.804 756.321 849.159 752.379 845.202C743.216 857.708 730.722 867.269 715.086 869.66C702.82 871.536 689.584 869.351 679.501 861.849C669.367 854.309 663.189 842.612 661.412 830.211C659.387 816.081 662.436 801.461 671.151 790.007C678.38 780.645 689.014 774.517 700.74 772.957C711.154 771.566 722.899 774.225 731.236 780.769C739.642 787.367 745.512 797.924 746.749 808.524C747.945 818.765 745.278 829.398 738.772 837.483C733.087 844.55 724.815 849.052 715.794 849.989C707.049 850.859 697.992 848.437 691.21 842.767C684.977 837.555 679.939 828.232 679.229 820.122C678.983 817.309 678.864 813.985 679.829 811.321L680.683 810.51C681.768 810.728 682.357 810.927 683.026 811.947C684.203 813.741 684.085 817.4 684.341 819.513C685.664 830.438 691.881 839.467 702.395 843.432C709.835 846.237 717.777 845.433 724.859 842.022C732.386 838.397 737.829 831.98 740.571 824.118C743.638 815.325 742.783 806.197 738.626 797.919C734.292 789.289 726.384 782.102 717.151 779.128C707.546 776.033 696.78 777.746 687.953 782.397C677.941 787.672 670.884 797.277 667.71 808.038C664.021 820.359 665.391 833.642 671.516 844.951C676.561 854.122 684.673 860.857 694.787 863.682C706.543 866.966 719.693 865.005 730.209 858.951C742.926 851.708 752.229 839.69 756.056 825.564C759.44 812.693 757.124 799.721 750.379 788.332C743.465 776.659 731.079 767.462 717.899 764.187C704.984 760.978 689.38 763.809 678.113 770.765C665.191 778.742 656.586 791.914 653.143 806.585C649.569 821.82 652.797 837.779 661.012 850.991C670.766 866.676 688.864 880.449 706.98 884.579C724.652 888.607 740.827 881.511 755.472 872.172C757.503 870.874 759.523 869.56 761.534 868.231C754.979 879.063 744.856 885.807 732.594 888.789C715.564 892.93 698.809 889.517 684.023 880.338C667.144 869.859 653.179 853.626 648.574 833.996C644.671 817.022 647.742 799.191 657.099 784.5C662.453 776.082 669.256 770.503 677.558 765.151C680.536 764.486 683.718 762.575 686.408 761.17C696.223 758.225 706.13 757.857 716.271 758.408C716.645 744.036 716.13 729.583 716.197 715.196C716.273 702.516 716.815 689.681 716.402 677.017C715.475 665.659 716.064 653.859 716.065 642.449L716.076 580.183L716.061 384.852L716.039 329.121C716.07 320.49 717.387 310.595 715.784 302.186C715.621 302.219 715.459 302.258 715.295 302.286C713.58 302.571 712.833 302.481 711.347 301.676C708.491 297.937 709.939 290.58 709.94 286.046L715.592 282.41L715.407 266.512C699.603 268.662 683.586 264.538 670.785 255.023C658.043 245.415 649.633 231.144 647.402 215.342C644.859 196.985 649.225 178.784 660.606 164.077C672.689 148.462 692.474 135.95 710.398 128.134C704.329 127.927 698.255 127.881 692.184 127.994C688.811 128.064 685.04 128.707 681.726 128.271C680.272 128.08 679.042 127.578 677.951 126.567C673.656 122.589 675.567 107.237 675.454 101.59C669.286 101.664 663.055 101.908 656.908 101.298ZM779.955 170.628C786.021 172.063 790.526 174.536 793.988 179.95C799.267 188.202 798.939 198.165 796.673 207.325L796.515 207.949C802.462 209.453 806.688 211.338 811.485 215.265C815.748 210.957 820.329 209.497 826.044 208.059C823.604 199.916 822.541 190.538 826.579 182.691C829.328 177.349 834.041 173.683 839.748 171.922C851.221 168.38 863.059 172.172 873.262 177.552L873.667 177.047C883.95 164.283 898.957 156.219 915.276 154.688C926.096 153.579 937.444 155.709 946.041 162.707C955.825 170.672 960.682 183.368 961.797 195.659C963.066 209.643 959.978 224.618 950.846 235.606C943.637 244.381 933.191 249.874 921.876 250.839C910.796 251.744 900.021 248.457 891.546 241.214C883.035 233.995 877.827 223.625 877.121 212.487C876.501 202.821 879.414 193.232 885.944 185.978C891.945 179.31 900.297 175.53 909.222 175.108C917.316 174.725 925.951 177.083 931.989 182.653C937.726 187.945 941.841 196.501 942.2 204.316C942.324 207.028 941.88 209.769 940.237 211.976L939.283 212.392C937.281 210.872 937.027 208.441 936.709 206.06C935.538 197.308 934.096 191.316 926.799 185.483C921.337 181.201 914.377 179.304 907.497 180.222C899.95 181.144 893.096 185.078 888.494 191.129C883.38 197.757 881.358 206.962 882.54 215.178C883.952 224.621 889.072 233.111 896.766 238.766C904.478 244.56 914.211 246.976 923.737 245.461C933.561 243.827 942.326 238.338 948.085 230.212C955.839 219.273 958.484 205.279 956.184 192.175C954.38 181.897 949.959 171.581 941.156 165.458C932.505 159.441 921.054 158.269 910.908 160.237C896.092 163.203 883.051 171.911 874.632 184.458C867.586 195.11 865.003 207.659 867.719 220.16C870.582 233.341 879.191 245.793 890.585 253.038C902.57 260.516 917.038 262.914 930.795 259.704C944.508 256.534 955.727 247.427 963 235.52C971.387 221.788 973.91 204.38 970.031 188.777C968.714 183.353 966.588 178.159 963.724 173.37C956.15 160.932 939.219 145.232 926.724 137.737C921.969 134.885 917.015 132.642 911.646 131.227C896.287 127.182 869.08 126.701 853.739 130.644C841.273 133.847 829.99 142.642 823.525 153.761C821.06 158 818.814 162.639 816.826 167.122C815.546 170.01 814.882 173.92 812.985 176.38L812.376 176.404C810.873 170.397 815.98 156.422 819.196 151.014C825.116 141.056 833.643 134.102 843.62 128.455C824.786 128.537 805.769 127.353 786.958 128.233C783.663 128.442 780.298 128.529 777.028 128.968C791.994 137.722 804.308 149.904 808.771 167.172C810.621 174.41 810.488 182.013 808.385 189.182C804.774 169.545 799.137 149.622 781.834 137.699C777.198 134.452 772.053 132 766.611 130.444C754.277 127.046 735.375 127.878 722.948 130.253C712.559 132.239 703.364 136.61 694.009 141.344C711.596 136.797 732.663 132.451 749.298 142.385C755.681 146.196 759.841 151.503 762.776 158.261C745.267 144.703 735.024 139.581 712.295 142.592C692.351 145.233 676.345 151.353 663.977 167.848C654.147 180.896 649.953 197.338 652.333 213.5C654.513 228.423 662.206 242.428 674.466 251.386C685.414 259.386 700.604 263.736 714.114 261.63C728.367 259.408 740.518 251.684 748.874 239.993C755.994 230.031 759.454 217.578 757.283 205.413C754.889 191.998 746.627 180.246 735.433 172.648C723.819 164.764 709.069 160.935 695.57 157.54C684.605 161.506 675.702 170.362 670.729 180.824C665.165 192.531 664.113 206.427 668.533 218.669C672.417 229.43 680.231 238.555 690.686 243.356C699.899 247.586 710.044 248.158 719.583 244.611C728.501 241.237 735.717 234.464 739.648 225.778C743.034 218.351 743.861 210.045 740.945 202.295C738.087 194.701 732.074 188.118 724.621 184.829C717.766 181.804 710.474 181.508 703.468 184.244C696.224 187.072 690.869 192.113 687.831 199.3C686.079 203.445 685.855 208.951 683.599 212.638L682.725 212.646C680.806 209.079 681.728 201.789 682.854 198.142C685.151 190.703 690.925 184.687 697.789 181.204C705.745 177.168 715.775 176.258 724.253 179.153C732.89 182.101 740.173 189.046 744.126 197.204C748.473 206.175 748.529 216.761 745.143 226.066C741.558 235.897 734.189 243.884 724.679 248.248C714.458 252.988 701.507 253.156 691 249.226C679.403 244.888 670.064 235.422 664.986 224.228C659.09 211.228 659.311 195.208 664.458 182C668.793 170.877 678.599 158.613 689.773 153.787C697.589 150.412 717.204 157.906 725.08 161.258C733.92 165.02 740.911 170.355 748.251 176.419C758.884 172.105 768.439 169.413 779.955 170.628ZM783.215 280.701C783.685 295.025 783.341 309.44 783.332 323.773L783.193 402.842L783.129 613.438L783.316 695.717C783.359 711.34 783.136 727.006 783.528 742.621C786.648 742.192 789.732 741.907 792.875 741.718C799.406 741.424 805.935 741.085 812.473 741.031C811.654 693.6 812.317 646.05 812.364 598.608L812.483 366.288C812.532 337.027 813.221 307.777 812.895 278.504C809.951 278.52 806.659 278.274 803.767 278.714C796.944 279.214 789.943 279.455 783.215 280.701ZM821.089 762.826C840.956 763.65 861.475 764.778 880.739 770.127C883.893 767.754 886.981 765.314 890.493 763.484C866.671 756.237 839.851 753.804 815.02 753.939C810.902 753.962 806.418 753.74 802.337 754.221C779.212 754.938 756.259 758.442 733.973 764.656C736.795 766.695 739.469 768.789 742.088 771.083C767.804 763.333 794.425 762.5 821.089 762.826ZM764.104 818.281L762.501 818.369C761.198 820.299 760.965 824.796 760.444 827.213C759.426 831.937 757.761 836.14 755.86 840.557C760.167 846.013 765.66 848.715 772.545 849.522C778.366 850.204 783.764 849.268 789.307 847.512C793.861 844.828 796.986 841.115 798.261 835.894C799.238 831.892 798.87 827.211 796.552 823.716C794.521 820.656 791.361 819.106 787.828 818.478C780.564 817.188 771.521 818.077 764.104 818.281ZM830.733 207.661C839.499 207.678 848.253 207.779 856.983 208.644L861.191 209.372C861.971 199.101 865.237 190.408 870 181.351C861.945 177.723 853.526 175.365 844.618 176.074C839.694 176.944 835.484 178.36 832.425 182.628C828.046 188.737 828.431 197.205 829.849 204.247C830.084 205.416 830.378 206.524 830.733 207.661ZM661.736 945.503C703.221 946.306 744.881 945.879 786.375 945.475C845.572 945.846 904.77 945.862 963.967 945.524C963.952 939.01 964.026 932.482 963.899 925.97C948.714 925.336 933.381 925.821 918.178 925.818L840.319 925.75L727.525 925.861C705.605 925.889 683.593 926.366 661.686 925.873C661.627 932.414 661.478 938.965 661.736 945.503ZM857.203 848.051C862.382 845.113 864.556 841.81 867.273 836.718C864.965 830.782 863.168 825.023 861.923 818.778C852.64 818.556 843.354 818.524 834.07 818.683C831.076 819.605 829.367 821.678 827.964 824.434C825.904 828.478 825.818 834.09 827.351 838.315C828.953 842.726 832.33 846.264 836.662 848.069C843.221 850.834 850.543 849.854 857.203 848.051ZM810.315 265.223C782.832 266.727 754.604 270.458 728.951 280.889C724.742 282.6 719.234 284.538 716.165 288.016C715.251 289.051 714.601 290.281 714.647 291.699C714.681 292.764 715.1 293.445 715.603 294.34C718.536 294.874 733.664 287.093 737.968 285.487C741.899 284.021 745.947 282.919 750.004 281.867C772.24 276.1 794.744 273.821 817.645 273.145C849.593 274.137 882.536 278.576 910.426 295.352C910.672 292.251 910.841 289.201 910.827 286.09C890.027 271.91 852.13 266.52 827.088 265.267C821.81 265.003 815.515 264.318 810.315 265.223ZM762.611 209.389C767.114 208.76 771.584 208.163 776.124 207.849C781.269 207.588 786.357 207.539 791.506 207.601C793.46 199.064 794.746 190.997 789.649 183.138C786.999 179.05 783.07 176.414 778.261 175.604C775.378 175.118 772.333 175.455 769.431 175.661C763.237 176.666 757.519 178.312 751.626 180.438C757.509 189.634 761.767 198.343 762.611 209.389ZM778.415 894.413C789.541 894.961 800.736 894.896 811.875 894.866C822.84 894.847 833.82 895 844.773 894.463C833.335 887.906 824.193 880.516 817.402 868.987C815.693 866.086 813.689 861.061 811.362 858.83C803.85 874.284 792.988 885.357 778.415 894.413ZM762.204 249.64C777.483 246.917 793.444 245.921 808.953 245.634C808.922 237.158 809.109 228.603 808.383 220.154C803.567 215.136 796.942 212.401 789.977 212.219C789.606 212.21 789.236 212.231 788.865 212.248C780.249 212.565 771.095 212.968 762.659 214.765C760.763 230.357 755.193 241.642 744.114 252.804C750.029 251.644 756.421 251.191 762.204 249.64ZM830.185 212.67C824.982 213.406 818.563 214.05 815.207 218.666C811.536 223.714 813.473 239.23 813.426 245.832C829.395 245.214 850.086 246.091 865.769 249.063C870.684 249.767 875.612 250.538 880.423 251.786C869.7 240.325 863.969 230.398 861.964 214.753C851.503 212.703 840.823 212.003 830.185 212.67ZM721.343 759.991C727.412 761.246 732.22 760.216 738.126 758.749C770.025 750.826 791.064 748.801 824.002 749.061C839.35 749.772 854.107 751.039 869.25 753.722C877.078 755.109 886.627 758.009 894.161 758.719C896.067 758.899 898.937 759.175 900.487 757.849C900.135 757.062 899.931 757.157 899.125 756.843C893.879 754.798 887.525 754.085 881.996 752.97C854.144 747.354 825.939 744.383 797.498 746.257C772.184 748.04 745.01 750.253 721.343 759.991ZM737.026 259.961C737.039 263.339 737.556 268.173 735.043 270.898C734.567 271.414 734.443 271.43 733.901 271.707C732.818 271.303 732.686 271.262 732.175 270.149C731.025 267.647 731.518 264.361 731.668 261.68C727.825 263.145 723.953 264.537 720.055 265.853L720.402 279.21C724.542 277.35 728.665 275.357 732.879 273.677C741.627 270.589 750.519 268.441 759.487 266.134C759.232 263.096 758.664 258.903 760.895 256.417C761.439 255.812 761.323 256.018 762.268 255.958C764.113 257.607 764.379 259.545 764.492 261.915C764.542 263.058 764.56 264.203 764.545 265.347C772.602 263.921 780.752 262.628 788.908 261.925C788.895 258.492 788.434 255.34 790.83 252.594L791.842 252.409C792.985 253.21 793.668 254.093 793.96 255.469C794.369 257.398 794.311 259.501 794.512 261.467C801.563 260.676 808.618 260.367 815.707 260.145C815.875 256.968 815.945 253.832 815.89 250.65L808.035 250.737C784.141 251.868 760.189 253.66 737.026 259.961ZM874.956 266.783C879.195 267.93 883.455 269.017 887.601 270.47L895.428 273.016C895.828 269.269 896.055 265.585 896.123 261.817C880.851 256.324 863.864 252.613 847.572 252.381C847.328 255.625 846.973 258.912 846.992 262.165C854.597 262.9 862.464 263.899 869.881 265.758C870.114 262.508 869.892 259.38 872.174 256.806L873.243 256.664C874.486 257.732 875.055 259.231 875.197 260.848C875.367 262.782 875.11 264.849 874.956 266.783ZM680.611 900.145C680.603 907.018 680.457 913.929 680.698 920.797L749.75 920.819L876.008 920.811C899 920.808 922.119 921.309 945.094 920.637C945.066 913.772 945.219 906.835 944.771 899.986C928.096 899.574 911.416 899.392 894.736 899.441C888.613 899.446 882.31 898.923 876.221 899.197C868.564 899.777 860.804 899.617 853.127 899.694C841.235 899.892 829.341 899.998 817.447 900.011L726.081 900.045C710.945 900.054 695.738 899.779 680.611 900.145ZM960.625 96.8686C961.382 96.7824 962.592 96.905 963.022 96.2288C965.309 92.6254 964.005 82.6991 963.469 78.5935C915.902 78.0489 868.312 78.8891 820.743 78.4839L716.192 78.3913L681.96 78.3546C676.727 78.3352 671.426 78.0217 666.203 78.2084L660.908 78.5305C660.9 84.5134 660.839 90.5037 660.917 96.4858C683.806 96.8885 706.712 96.4512 729.607 96.5569L960.625 96.8686ZM900.321 274.654C903.627 276.077 907.028 277.404 910.254 278.991C910.879 274.834 910.725 270.423 910.564 266.227C907.618 265.41 904.585 264.694 901.699 263.693C901.027 267.323 900.692 270.984 900.321 274.654ZM820.834 260.305C827.876 260.517 834.854 260.835 841.858 261.651C842.014 258.305 842.098 254.957 842.111 251.608C834.967 251.299 827.826 250.929 820.689 250.498L820.834 260.305ZM681.086 122.918C688.887 122.54 696.774 122.962 704.587 123.009L746.263 123.057L880.547 123.118L927.328 123.531C933.206 123.53 939.208 123.8 945.072 123.512C945.174 116.262 945.172 109.011 945.064 101.762C906.107 100.802 866.962 101.854 827.986 101.849C778.969 101.842 729.883 100.974 680.873 101.636C680.656 108.73 680.727 115.83 681.086 122.918ZM722.325 754.046C729.735 750.666 738.171 748.862 746.126 747.231L746.173 373.578C746.172 364.379 746.96 290.829 746.155 288.705L745.516 288.516C737.389 291.385 729.368 294.408 721.545 298.038L721.497 646.684C721.487 658.317 719.979 749.102 721.742 753.885L722.325 754.046ZM908.449 753.83L908.477 300.511C900.6 295.953 892.53 292.205 884.097 288.786C883.646 313.544 884.223 338.327 884.196 363.088L884.175 534.317L884.029 679.202C884.007 702.183 883.695 725.208 884.048 748.185C889.32 749.061 904.778 754.017 908.449 753.83ZM846.592 742.388C847.829 726 846.487 709.13 846.459 692.675L846.372 586.573L846.216 415.367C846.309 370.324 846.882 325.221 846.386 280.185C836.999 279.222 827.447 278.211 818.005 278.501L817.963 559.015L817.845 654.018C817.665 683.026 817.145 712.112 817.69 741.112C827.412 741.075 836.919 741.296 846.592 742.388ZM775.686 281.638C767.622 283.051 759.416 284.406 751.582 286.832L751.107 608.124L751.098 693.723C751.047 709.657 750.597 725.708 750.91 741.625C750.937 742.967 750.969 744.572 751.876 745.654C751.985 745.784 752.128 745.879 752.255 745.991C752.94 745.949 753.704 745.967 754.372 745.813C762.333 744.726 770.624 744.057 778.476 742.434L778.11 453.906L778.192 327.128C778.211 315.528 778.919 303.905 778.807 292.323C778.781 289.637 779.09 283.848 777.536 281.611C776.982 281.614 776.23 281.56 775.686 281.638ZM878.415 746.572L878.476 439.087L878.474 339.143C878.47 321.938 877.571 304.165 878.702 287.029C870.049 285.056 860.916 282.04 852.068 281.342L851.928 560.622C851.918 621.355 851.221 682.166 851.982 742.892C860.57 744.233 869.749 746.334 878.415 746.572ZM815.511 767.647C814.662 778.659 814.428 790.844 815.293 801.845C819.61 808.12 824.37 812.033 832.05 813.392C841.642 815.088 852.205 813.472 861.941 813.461C862.138 809.152 862.492 804.806 863.524 800.606C865.888 790.495 871.057 782.465 876.854 774.022C856.887 769.777 835.977 766.834 815.511 767.647ZM802.554 767.724C784.319 768.702 764.054 769.125 746.559 774.725C755.053 785.331 760.085 794.953 762.103 808.5L762.583 813.453C773.26 813.729 797.573 816.162 805.32 808.476C812.948 800.908 810.275 778.113 810.198 767.647C807.674 767.656 805.065 767.523 802.554 767.724Z"/>
	<path fill="#1F1E1F" d="M896.881 136.198C901.19 135.995 905.249 136.308 909.462 137.277C913.947 138.308 927.636 143.128 929.494 147.381C930.053 148.662 929.702 149.25 929.254 150.458C927.304 151.157 915.453 144.162 911.134 142.91C903.34 140.651 896.214 140.964 888.379 142.758C877.193 145.625 868.344 152.338 858.945 158.67C860.288 155.731 861.848 152.925 863.922 150.436C872.105 140.613 884.664 137.369 896.881 136.198Z"/>
	<path fill="#49497F" d="M527.613 314.335C529.893 314.765 532.135 314.565 534.439 314.456C553.785 314.841 573.132 314.08 592.484 314.521C594.359 314.474 596.31 314.541 598.172 314.363C627.237 314.446 656.433 314.96 685.488 314.395L685.292 523.526L685.214 591.69C685.185 605.254 684.803 618.93 685.416 632.479C679.513 632.209 638.7 631.408 635.67 632.595L635.492 632.356C634.193 631.682 632.376 632.063 630.951 632.15L596.818 632.207C590.201 632.245 583.054 632.796 576.485 632.024L571.757 632.084C562.283 632.919 552.464 632.423 542.946 632.407L494.787 632.361C487.386 632.346 478.4 631.06 471.164 632.681C469.357 632.421 467.554 632.523 465.734 632.565C460.169 631.073 444.153 632.085 437.188 632.093L377.704 632.252C365.503 632.346 353.062 632.927 340.888 632.346C338.78 632.246 335.486 632.224 334.005 630.586C332.098 622.043 333.335 611.566 333.289 602.749C333.097 582.289 333.034 561.828 333.1 541.367L333.176 474.469C333.173 462.275 332.487 449.6 333.409 437.46C333.551 435.834 333.515 434.157 333.548 432.523C333.02 421.688 333.386 410.632 333.322 399.778C333.276 391.993 332.562 383.525 333.463 375.817L333.514 370.85L333.237 339.748C333.187 333.333 332.781 326.506 333.685 320.146C335.093 318.781 336.025 317.485 336.98 315.775C337.889 314.999 338.946 314.772 340.115 314.673C346.931 314.096 354.124 314.518 360.977 314.511L401.146 314.524L406.265 314.514C425.495 314.86 444.725 313.989 463.954 314.514L469.941 314.514C489.092 313.872 508.444 314.277 527.613 314.335ZM679.544 626.97C680.977 616.66 680.086 605.386 680.079 594.942L680.073 535.399L679.884 320.168L446.921 320.054L375.001 320.096C363.3 320.118 351.326 320.78 339.671 320.213C338.962 321.156 339.039 321.882 339.006 323.001C338.54 339.049 338.929 355.227 338.924 371.288L338.911 463.499L338.951 570.956C338.965 589.457 338.625 608.04 339.042 626.53L679.544 626.97Z"/>
	<path fill="#49497F" d="M352.789 328.165C383.36 328.496 414.015 327.735 444.599 327.767L672.441 328.007C670.86 399.517 672.223 471.181 672.087 542.718L671.976 588.439C671.994 596.684 672.417 605.051 672.091 613.28C672.01 615.328 671.793 617.064 670.89 618.918C669.576 619.929 669.225 619.856 667.625 619.986L470.112 619.56L405.139 619.77C391.13 619.877 377.086 620.241 363.079 619.991C358.579 619.911 351.634 620.422 347.667 618.469C347.288 617.736 347.092 617.115 346.975 616.295C345.767 607.862 346.838 598.84 346.97 590.321C347.177 576.919 347.074 563.501 347.079 550.097L347.047 388.685L346.984 350.603C346.935 344.783 346.269 338.504 346.702 332.744C346.792 331.557 347.146 330.421 347.949 329.513C349.121 328.187 351.155 328.284 352.789 328.165ZM352.49 333.516L352.494 614.514L640.875 614.67L666.877 614.664C666.089 589.564 666.694 564.262 666.679 539.142L666.503 400.275C666.483 378.011 666.895 355.74 666.532 333.479C656.6 332.902 646.485 333.354 636.532 333.337L572.31 333.371L379.644 333.248C370.592 333.262 361.54 333.351 352.49 333.516Z"/>
	<path fill="#7B688F" d="M579.402 379.817C582.212 382.264 633.92 494.893 637.119 503.72C629.45 504.03 621.698 503.844 614.027 503.617C610.543 496.105 607.099 488.575 603.693 481.027C594.944 480.739 586.132 480.937 577.375 480.922L552.719 480.95C549.396 488.557 545.999 496.131 542.527 503.671C534.902 503.925 527.187 503.18 519.589 503.876C521.936 497.494 525.343 491.409 528.353 485.315L541.282 458.737C553.96 432.461 565.997 405.73 579.402 379.817ZM561.836 462.034C567.857 462.1 573.878 462.114 579.899 462.075C585.246 462.06 590.592 462.156 595.935 462.365C593.579 457.096 581.555 427.876 579.271 425.754C573.231 437.813 567.097 449.6 561.836 462.034Z"/>
	<path fill="#7B688F" d="M460.425 382.741C479.342 383.766 512.463 377.738 527.189 391.505C533.833 397.717 537.27 406.695 537.503 415.697C537.729 424.464 534.75 433.871 528.53 440.207C516.653 452.302 498.073 450.28 482.626 450.349L481.82 450.247L481.176 450.835C479.874 467.093 480.832 486.903 480.939 503.503C473.985 503.45 466.883 503.194 459.956 503.835C459.823 491.084 458.959 384.771 460.425 382.741ZM481.005 401.395C480.925 411.43 480.915 421.466 480.973 431.501C490.578 431.59 500.002 432.296 509.174 428.943C512.809 426.8 515.224 424.439 516.366 420.26C517.382 416.544 516.686 412.419 514.732 409.123C512.344 405.096 508.428 402.905 503.969 401.842C498.302 400.492 492.208 400.916 486.443 401.25C484.634 401.321 482.814 401.438 481.005 401.395Z"/>
	<path fill="#7B688F" d="M378.879 382.572C385.629 383.307 392.8 382.735 399.581 382.537C398.529 416.673 399.837 451.043 399.54 485.213C414.554 485.204 429.67 485.587 444.667 484.989C444.619 491.102 444.537 497.214 444.421 503.326C440.808 504.481 387.072 503.639 378.84 503.638C379.499 487.46 378.824 471.017 378.754 454.815L378.879 382.572Z"/>
	<path fill="#1F1E1F" d="M524.283 538.56C526.439 538.606 528.626 538.817 530.581 539.794C533.716 541.361 535.852 544.299 536.945 547.568C538.555 552.38 538.402 558.48 536.079 563.044C533.953 567.223 531.047 569.16 526.655 570.467C524.676 570.237 522.71 570.009 520.898 569.12C517.366 567.387 515.019 564.077 513.923 560.366C512.49 555.513 512.891 549.477 515.421 545.039C517.536 541.328 520.251 539.672 524.283 538.56ZM526.7 564.368C529.656 561.844 530.83 559.011 531.176 555.142C531.468 551.888 530.901 548.204 528.615 545.716C527.402 544.396 526.106 544.142 524.413 543.852C521.691 545.666 520.594 547.831 519.931 551.019C519.221 554.435 519.348 558.844 521.435 561.803C522.399 563.169 523.589 563.992 525.274 564.235C525.747 564.303 526.224 564.331 526.7 564.368Z"/>
	<path fill="#1F1E1F" d="M468.063 538.654C469.917 538.794 471.773 538.936 473.492 539.705C476.91 541.234 479.292 544.362 480.402 547.876C481.942 552.747 481.62 558.71 479.15 563.226C477.04 567.087 474.322 568.776 470.216 570.049C467.527 570.037 464.954 569.829 462.646 568.306C459.334 566.121 457.454 562.574 456.718 558.748C455.76 553.762 456.361 547.854 459.381 543.639C461.687 540.421 464.269 539.314 468.063 538.654ZM469.977 564.883C473.057 561.929 474.183 558.671 474.358 554.407C474.488 551.252 473.851 547.954 471.66 545.56C470.406 544.189 469.235 544.019 467.484 543.818C464.324 546.567 463.144 549.445 462.907 553.653C462.721 556.944 463.465 560.569 465.808 563.026C466.944 564.215 468.396 564.638 469.977 564.883Z"/>
	<path fill="#1F1E1F" d="M495.163 539.04C495.976 538.981 496.79 538.937 497.605 538.908C499.122 538.864 500.623 538.848 501.783 539.959C503.281 547.288 502.098 561.389 501.984 569.408C500.132 569.474 497.179 570.011 495.579 568.967L495.367 567.483C494.911 560.694 496.063 553.671 495.099 546.983L494.477 546.843C493.069 547.709 491.675 548.86 489.964 548.843C489.225 547.89 489.161 547.748 489.302 546.539C489.628 543.745 493.151 540.843 495.163 539.04Z"/>
	<path fill="#1F1E1F" d="M552.268 539.167L558.473 539.145C557.916 549.235 558.142 559.401 558.141 569.505C556.037 569.531 553.666 569.902 551.851 568.797L551.744 567.377C552.019 560.022 551.936 552.659 551.495 545.312C550.322 545.958 548.878 546.914 547.575 547.235C546.625 547.468 546.619 547.43 545.803 546.845C545.812 546.286 545.778 546.203 545.988 545.59C546.902 542.929 549.99 540.583 552.268 539.167Z"/>
	<path fill="#1F1E1F" d="M220.251 453.665C219.178 452.124 218.448 451.426 218.263 449.533C219.103 448.261 219.747 447.699 221.263 447.345C224.121 446.679 229.624 446.985 232.161 448.54C236.374 451.121 243.379 464.599 246.8 469.256C256.004 481.563 266.226 493.074 277.36 503.667C280.448 506.625 292.431 516.33 292.845 520.233C293.162 523.225 289.641 527.195 287.892 529.49C291.469 535.318 295.09 541.042 299.255 546.474C306.738 556.232 315.809 564.047 318.236 576.638C317.465 579.241 316.693 582.364 314.072 583.726C304.363 588.77 285.987 590.729 274.761 593.041C256.854 596.73 238.206 602.437 219.883 603.103C219.923 599.543 220.077 595.934 219.836 592.383C234.008 587.052 248.232 581.859 262.505 576.803C270.462 573.948 278.719 571.349 286.412 567.834C279.646 561.255 272.836 554.721 265.983 548.232C263.155 549.806 260.377 551.24 257.381 552.47C256.808 559.435 257.029 567.399 258.194 574.284L252.053 576.933C252.043 570.642 253.145 551.12 249.916 546.646L249.063 546.395C246.836 549.673 247.806 572.516 248.323 577.686C242.145 579.802 221.324 588.908 216.847 589.193C211.147 589.556 204.251 587.379 198.653 586.255C190.828 590.53 181.912 594.632 179.016 603.868C177.74 607.938 177.49 613.13 179.582 616.98C180.647 618.939 182.297 620.358 184.494 620.851C187.171 621.452 190.063 620.705 192.314 619.213C195.124 617.352 197.387 614.708 200.312 613.034C214.088 605.149 229.106 606.086 244.168 602.963C246.802 602.417 249.792 602.006 252.314 601.076C253.309 600.715 254.389 600.527 255.42 600.284C257.222 599.929 259.039 599.607 260.818 599.152C263.019 618.577 264.821 638.046 266.224 657.545C262.812 660.127 259.088 662.137 255.364 664.221C253.059 678.171 249.633 691.911 245.119 705.31C242.916 711.821 239.965 718.173 237.977 724.724C242.544 738.229 245.358 752.423 248.865 766.239C255.734 766.032 262.896 766.028 269.449 768.397C285.833 774.321 326.271 810.768 340.124 823.722C342.924 826.341 346.171 829.651 346.17 833.729C346.168 839.429 341.985 845.245 338.327 849.321C328.601 847.412 318.998 843.285 309.694 839.924L268.295 825.153C257.96 821.56 247.598 818.048 237.209 814.615C229.903 812.202 222.388 810.019 215.346 806.909C212.222 805.528 207.959 802.955 206.003 800.092C205.456 799.29 205.139 799.032 205.338 798.034C206.24 793.525 209.637 788.434 211.833 784.35C218.564 771.829 235.247 745.071 235.645 731.668C230.402 740.276 226.434 749.591 221.852 758.554C212.567 776.719 203.054 794.955 192.619 812.481L184.8 812.325C184.011 845.536 166.012 873.316 147.103 899.272C141.135 907.464 134.278 915.675 129.465 924.601C126.339 930.397 125.268 937.399 123.335 943.664C120.733 952.094 117.771 960.439 114.933 968.793L115.097 969.397C115.818 972.163 116.15 974.966 114.555 977.513C113.47 979.247 111.663 980.238 109.702 980.663C106.506 981.355 103.121 980.729 100.055 979.744C93.9722 977.789 88.2307 974.354 82.589 971.396C68.8844 964.208 54.923 956.652 42.1772 947.846C38.8763 945.565 34.9879 942.349 34.1572 938.201C33.4834 934.837 34.9816 929.973 36.9354 927.236C39.3 923.923 42.9622 922.257 46.8943 921.638C52.6393 920.732 59.2946 921.86 65.0976 922.223C76.5995 922.941 91.4953 921.706 98.9666 911.832C112.338 894.161 128.11 834.88 131.976 812.369C133.481 803.606 132.348 794.872 134.624 786.17L153.935 715.224C158.203 699.532 162.889 683.885 165.408 667.793C161.838 666.031 154.505 663.206 153.315 659.014C152.182 655.02 156.979 636.839 157.82 631.221C159.818 617.882 161.105 603.502 161.025 590.017L134.272 590.207C129.451 590.24 124.222 590.685 119.461 589.978C117.36 589.665 114.002 588.963 112.5 587.284C108.506 582.821 110.786 559.861 110.823 553.062C101.931 543.493 92.2059 534.18 81.9748 526.035C76.363 521.567 68.7723 519.613 64.1219 513.944C60.7796 509.869 60.0763 504.43 59.5048 499.37C61.8311 495.174 66.2304 485.271 71.1949 484.392C73.9131 483.911 76.4435 485.958 78.335 487.624C81.2184 490.163 83.8596 493.089 86.5334 495.85C88.2216 494.647 90.0596 492.923 92.261 493.188C93.0829 493.287 93.2412 493.688 93.7927 494.242C95.3313 499.12 92.2475 505.782 91.9923 510.926C97.3279 519.303 107.386 526.302 116.022 531.016C129.753 528.089 142.795 529.764 156.526 528.647C156.769 523.41 156.853 518.066 157.646 512.88C159.106 503.338 164.161 485.187 171.273 478.382C171.954 477.73 172.714 477.161 173.474 476.606C174.07 477.389 174.119 479.221 174.867 479.262C182.724 479.685 213.228 458.408 220.251 453.665ZM158.707 658.312L162.844 659.957C164.02 660.047 165.248 660.241 166.393 659.888C167.177 659.646 167.347 658.823 167.717 658.146C165.975 657.555 164.739 657.459 163.597 655.984C162.714 651.092 167.196 631.724 168.161 625.196C169.237 618.099 169.928 610.949 170.231 603.778C171.026 587.071 170.662 570.329 169.143 553.672C168.047 541.935 165.356 530.351 166.16 518.503C166.819 508.795 169.41 498.658 174.466 490.272C195.641 481.916 212.879 474.739 228.534 457.316C240.629 480.686 263.163 503.183 282.237 521.045C273.879 529.133 265.472 537.587 255.474 543.664C247.223 536.707 242.029 525.942 233.436 520.082C236.023 528.58 245.156 540.82 252.98 544.99C254.034 545.551 255.117 546.054 256.226 546.498C265.953 540.674 279.899 530.003 286.087 520.257C281.118 513.996 274.394 509.007 268.752 503.332C258.053 492.553 248.316 480.86 239.651 468.387C236.932 464.531 231.277 454.057 226.645 453.433C224.021 454.595 220.399 461.468 217.698 463.736C204.853 474.524 188.223 482.239 172.298 487.202C157.766 513.469 164.111 533.24 166.177 560.902C167.155 573.996 167.234 587.553 166.829 600.663C166.228 620.126 162.122 639.202 158.707 658.312ZM124.483 534.233C122.121 534.321 118.733 533.992 116.922 535.734C115.028 537.555 115.754 570.941 116.026 575.569C116.157 577.795 116.466 582.365 117.983 584.023C124.811 585.521 145.257 584.338 153.686 584.46L160.897 584.468C161.603 576.358 162.637 542.07 158.244 536.495C156.836 534.708 154.249 534.529 152.119 534.355C143.261 533.634 133.381 533.798 124.483 534.233Z"/>
	<path fill="#FCFCFD" d="M252.314 601.076C253.309 600.715 254.389 600.527 255.42 600.284C256.645 618.289 258.939 636.343 260.523 654.344C238.279 669.478 208.922 671.049 183.126 666.107C176.702 664.877 168.5 663.391 162.844 659.957C164.02 660.047 165.248 660.241 166.393 659.888C167.177 659.646 167.347 658.823 167.717 658.146C172.568 659.382 177.338 660.874 182.224 661.989C205.207 667.236 236.197 665.865 256.571 653.074C256.295 635.789 253.738 618.308 252.314 601.076Z"/>
	<path fill="#1F1E1F" d="M132.164 537.76C136.101 537.667 152.537 536.624 155.11 538.882C158.786 542.108 158.14 574.796 157.389 580.573L144.028 580.503L119.06 580.518C118.987 569.472 117.697 547.823 119.693 538.118C123.837 537.842 128.012 537.844 132.164 537.76ZM138.625 564.964C141.2 563.531 143.468 562.111 144.405 559.154C144.927 557.548 144.782 555.799 144.003 554.301C142.918 552.225 140.724 550.753 138.504 550.136C137.317 549.806 136.01 549.569 134.782 549.455C131.962 550.931 129.759 552.466 128.824 555.668C128.237 557.677 128.303 559.876 129.444 561.685C130.612 563.536 132.666 564.726 134.805 565.072C136.051 565.274 137.379 565.093 138.625 564.964Z"/>
	<path fill="#FCFCFD" d="M92.0719 923.025L92.6083 923.755C92.669 926.144 91.8049 928.412 91.1315 930.682C98.9995 937.865 106.844 942.574 116.672 946.643C114.777 953.544 112.558 960.352 110.022 967.044C100.985 965.173 92.6354 961.016 84.3209 957.163C78.7879 954.428 73.2795 951.642 67.7965 948.808C69.575 944.641 71.2608 940.874 71.1418 936.23C71.0879 934.127 70.3188 930.995 70.9094 929.028C71.1025 928.384 71.539 928.334 72.0821 928.028C79.0094 929.235 79.0528 939.516 84.6865 940.969C85.5192 941.184 85.664 940.789 86.2949 940.329C86.5335 939.546 86.7539 938.836 86.7112 938.007C86.4643 933.207 82.8023 929.96 79.5944 926.876C83.8786 925.856 87.9304 924.508 92.0719 923.025Z"/>
	<path fill="#FCFCFD" d="M249.151 666.342L249.524 666.813C250.201 669.829 248.207 675.459 247.392 678.489C240.634 703.616 229.453 726.983 218.076 750.278C208.956 768.953 199.661 787.423 189.639 805.629C186.074 805.475 182.507 805.204 178.945 804.983C178.989 805.521 179.028 806.059 179.061 806.598C181.442 844.256 158.932 873.312 138.293 902.32C132.225 910.848 127.323 920.093 120.389 927.987C119.967 927.485 119.044 926.424 119.047 925.734C119.058 922.867 125.575 914.238 127.486 911.554C145.332 886.496 169.215 857.613 174.693 826.723C175.966 819.547 174.817 812.554 175.559 805.464C175.703 804.091 175.881 803.451 177.129 802.694C179.848 801.046 184.438 802.169 187.405 802.619C197.18 784.298 206.679 765.832 215.902 747.228C222.747 733.54 229.606 719.873 235.392 705.692C238.134 698.972 240.525 691.733 242.27 684.694C243.455 679.912 244.057 674.015 246.148 669.575C246.812 668.165 247.943 667.275 249.151 666.342Z"/>
	<path fill="#FCFCFD" d="M44.5258 926.56C49.6002 926.302 55.4172 925.728 60.3305 927.317C62.5678 928.041 64.6253 929.383 65.6888 931.545C67.9253 936.091 65.601 941.55 63.9324 945.887C61.5539 945.896 53.2187 940.27 50.8642 938.757C47.5613 936.635 43.5577 934.089 42.6798 930.021C42.9194 928.363 43.4419 927.736 44.5258 926.56Z"/>
	<path fill="#FCFCFD" d="M38.7822 935.827C43.4076 937.467 47.006 942.112 51.1407 944.751C58.5774 949.497 66.7139 953.913 74.5142 958.054C80.4327 961.196 86.536 964.489 92.8965 966.626C98.5637 968.53 105.26 969.453 110.521 972.178C111.006 973.53 110.711 974.324 110.485 975.725C102.324 978.057 87.4742 968.662 80.1273 964.642C71.3171 959.823 46.3962 946.397 40.349 939.299C39.5051 938.308 39.1423 937.054 38.7822 935.827Z"/>
	<path fill="#FCFCFD" d="M99.3445 921.637C107.712 923.613 114.332 929.578 121.975 933.216C120.919 935.917 119.729 938.579 118.594 941.249C118.509 941.282 118.428 941.329 118.34 941.349C113.501 942.473 100.955 933.078 96.7212 930.115C97.4648 927.211 98.2545 924.433 99.3445 921.637Z"/>
	<path fill="#1F1E1F" d="M148.46 360.853C149.892 362.106 149.864 364.189 150.871 365.769C153.703 370.218 170.417 363.165 175.087 362.609C180.305 361.988 185.997 362.255 191.155 363.25C201.015 365.151 211.076 370.453 216.715 379.002C223.976 390.011 221.494 405.382 215.201 416.26C212.345 421.196 208.035 425.862 207.007 431.608C205.614 439.391 210.495 446.39 214.624 452.489C210.827 455.513 206.908 458.296 202.922 461.059C194.747 466.405 186.33 471.321 177.183 474.823C176.93 467.899 175.143 457.464 171.027 451.747C166.216 445.066 160.24 448.772 153.687 447.456C152.351 447.188 151.431 446.597 150.726 445.401C149.132 442.699 150.523 438.724 151.283 435.965C149.549 433.546 148.464 431.098 147.313 428.373C146.15 427.632 144.201 426.679 143.313 425.657C142.361 424.561 142.282 423.937 142.493 422.543C143.049 418.878 147.473 415.791 148.606 412.014C150.587 405.41 149.92 398.216 151.034 391.44C149.788 390.415 148.53 389.382 147.39 388.237C143.64 384.467 141.057 379.462 141.198 374.054C141.352 368.156 144.448 364.673 148.46 360.853ZM183.764 428.265C186.769 427.624 189.192 425.408 190.096 422.471C191.001 419.535 190.245 416.34 188.121 414.119C185.998 411.899 182.839 411.002 179.865 411.776C175.406 412.935 172.691 417.444 173.751 421.927C174.811 426.41 179.259 429.226 183.764 428.265Z"/>
	<path fill="#1F1E1F" d="M386.129 814.668C386.641 814.682 387.011 815.021 387.448 815.276C390.924 821.423 392.354 829.8 394.471 836.551C398.382 849.023 409.792 877.579 406.705 889.728C405.347 895.072 394.045 901.435 389.364 904.143C386.618 905.732 383.666 906.988 380.483 906.008C376.145 904.673 373.707 900.526 371.867 896.7C367.051 877.116 352.015 865.913 341.726 849.588L346.541 846.268C347.474 844.588 348.259 842.872 348.948 841.08C351.224 835.166 350.685 830.991 348.214 825.372C360.235 820.379 373.344 816.955 386.129 814.668ZM364.864 824.607C369.02 836.135 371.336 844.679 365.794 856.494L365.455 857.212C370.954 863.609 377.292 869.668 379.556 878.005C378.567 882.078 376.9 885.037 374.495 888.432C375.401 892.665 376.438 895.928 378.939 899.529C381.05 900.751 382.745 901.511 385.208 900.877C388.404 900.054 391.135 897.172 392.625 894.339C397.188 885.657 393.262 873.721 390.345 865.104C387.318 856.16 383.618 847.42 380.831 838.399C379.928 835.474 377.244 822.841 375.737 821.507L374.82 821.514L364.864 824.607ZM362.117 861.292C361.014 862.296 359.664 863.2 359.336 864.72C362.551 869.913 368.564 878.818 372.701 883.113C373.841 881.303 374.989 879.538 375.885 877.591C373.203 873.882 365.832 862.658 362.117 861.292ZM381.883 819.597C381.744 820.273 381.66 820.556 381.611 821.203C380.856 831.3 392.241 854.745 395.753 865.514C397.574 871.097 399.126 876.162 399.274 882.086C399.329 884.273 398.599 890.657 399.613 892.349L400.373 891.848C401.56 889.372 402.761 886.877 402.731 884.057C402.629 874.689 390.335 837.606 386.404 826.52C385.664 824.431 384.896 821.68 383.438 819.98L381.883 819.597ZM358 827.247C356.46 828.378 355.919 828.763 355.609 830.759C354.498 837.905 353.05 843.764 349.975 850.346C352.42 853.561 354.871 856.756 357.454 859.863C363.034 852.433 365.817 845.86 364.401 836.313C363.965 833.379 362.758 829.904 360.41 827.924C359.715 827.339 358.863 827.314 358 827.247Z"/>
	<defs>
		<linearGradient id="gradient_0" gradientUnits="userSpaceOnUse" x1="632.30225" y1="859.72235" x2="510.08255" y2="802.98615">
			<stop offset="0" stop-color="#2E88A9"/>
			<stop offset="1" stop-color="#1E7BB7"/>
		</linearGradient>
	</defs>
	<path fill="url(#gradient_0)" d="M630.951 632.15C632.376 632.063 634.193 631.682 635.492 632.356L635.67 632.595C641.654 647.293 647.787 661.971 652.695 677.072L716.402 677.017C716.815 689.681 716.273 702.516 716.197 715.196L716.065 681.595C694.107 681.084 672.14 681.09 650.183 681.614C644.589 685.734 639.488 691.12 634.412 695.89L605.734 722.998L551.049 774.457C542.564 782.492 533.826 790.312 525.603 798.613C531.97 825.246 537.06 852.186 543.284 878.852C515.59 904.371 488.994 931.33 462.106 957.709C451.233 968.376 440.613 979.804 429.172 989.833C427.765 991.067 426.392 992.194 424.532 992.613C423.61 992.059 423.071 991.479 422.383 990.657C422.734 989.37 423.282 989.012 424.204 988.062C427.811 984.343 431.799 980.926 435.503 977.293L472.667 940.993C494.577 919.609 516.176 897.697 538.604 876.872C536.48 870.454 535.392 863.465 533.971 856.848L526.743 823.737C524.811 814.801 523.117 805.635 520.173 796.967C531.247 787.546 541.67 777.218 552.25 767.241L608.238 714.274C621.371 701.81 634.386 689.082 648.075 677.231C642.557 662.139 636.245 647.31 630.951 632.15Z"/>
	<path fill="#298C97" d="M236.068 132.944C232.159 135.516 227.645 136.384 223.03 135.294C219.468 134.453 216.22 131.44 214.543 128.273C212.658 124.714 211.844 120.434 213.127 116.539C214.253 113.121 216.899 110.396 220.098 108.823C224.321 106.778 229.205 106.593 233.57 108.312C236.839 109.586 239.481 111.895 240.863 115.155C242.709 119.506 242.059 124.114 240.18 128.313C239.882 128.972 239.57 129.625 239.245 130.272C248.09 138.546 255.808 148.435 263.725 157.614C269.141 163.893 275.227 170.114 280.013 176.861C308.499 176.72 337.392 175.758 365.846 176.594C374.652 184.479 385.623 201.011 393.01 211.005L430.197 260.852L455.01 293.591C460.057 300.247 465.955 307.182 469.941 314.514L463.954 314.514C442.281 285.319 420.457 256.237 398.482 227.269C387.01 212.083 376.048 196.123 363.95 181.457C342.894 180.813 321.657 181.528 300.584 181.648C293.274 181.69 285.827 182.014 278.529 181.693C273.04 176.261 268.086 170.189 263.031 164.351L236.068 132.944ZM229.745 129.468C232.71 128.647 235.002 126.293 235.744 123.307C236.486 120.322 235.563 117.168 233.327 115.055C231.091 112.941 227.89 112.196 224.951 113.105C220.5 114.481 217.977 119.176 219.287 123.648C220.597 128.12 225.254 130.711 229.745 129.468Z"/>
	<path fill="#298C97" d="M158.863 165.887C154.561 167.965 149.857 168.471 145.287 166.851C142.118 165.728 139.794 163.808 138.369 160.74C136.554 156.831 135.624 152.294 137.164 148.138C138.396 144.812 141.041 142.321 144.25 140.902C148.36 139.114 153.016 139.051 157.174 140.727C160.51 142.059 163.424 144.519 164.843 147.869C166.309 151.329 166.004 155.578 164.502 158.978C163.944 160.209 163.338 161.418 162.686 162.603C170.959 173.428 179.743 183.87 188.266 194.5C195.333 203.313 202.133 212.337 209.16 221.181C213.426 226.551 218.103 231.676 222.2 237.168L348.454 237.51C358.17 248.304 366.15 260.977 374.961 272.526C383.018 283.087 401.395 303.956 406.265 314.514L401.146 314.524L345.789 242.026L265.061 242.092C249.967 242.13 234.49 242.765 219.43 241.857C212.7 234.443 206.512 226.386 200.286 218.544C186.399 201.052 173.023 183.162 158.863 165.887ZM153.685 161.705C158.167 160.297 160.68 155.545 159.323 151.048C157.966 146.552 153.243 143.984 148.731 145.29C145.766 146.148 143.492 148.533 142.775 151.535C142.059 154.537 143.011 157.693 145.269 159.797C147.526 161.902 150.741 162.63 153.685 161.705Z"/>
	<path fill="#247DB1" d="M571.757 632.084L576.485 632.024C579.899 644.215 584.767 656.914 589.689 668.584C567.578 690.381 544.611 711.326 522.375 733.008C505 749.95 488.413 767.829 470.478 784.171C477.479 810.278 480.672 837.435 487.808 863.526C471.978 876.018 457.728 891.721 443.366 905.867C426.153 922.82 408.421 939.255 391.155 956.154C384.696 962.476 360.024 988.766 354.753 990.636C353.552 991.062 352.925 991.1 351.777 990.592L351.643 989.674C352.287 987.626 353.414 986.138 354.887 984.587C360.414 978.768 366.852 973.443 372.647 967.825L420.109 922.005C430.685 911.889 441.2 901.709 451.654 891.468C461.881 881.375 471.927 871.089 482.754 861.629C480.441 854.207 479.063 846.425 477.503 838.815C473.837 820.936 470.377 799.821 465.206 782.512C480.693 768.498 495.246 753.219 510.223 738.642C534.742 714.817 559.487 691.225 584.455 667.871C580.109 655.985 576.122 643.968 571.757 632.084Z"/>
	<path fill="#298C97" d="M103.562 338.449C103.563 339.606 103.57 340.79 103.337 341.928C102.609 345.468 100.311 348.837 97.1702 350.644C93.8867 352.533 88.9362 353.104 85.3071 352.068C81.1591 350.884 77.9438 348.347 75.9674 344.515C74.3208 341.322 73.8749 337.724 74.9926 334.284C76.326 330.18 79.601 326.788 83.4891 324.993C87.0435 323.353 91.0174 323.049 94.6897 324.508C99.0106 326.226 101.473 329.62 103.297 333.739C139.504 331.369 175.814 330.861 212.031 328.469C220.203 333.747 228.701 345.55 235.502 352.982C250.027 368.641 264.42 384.422 278.68 400.323C288.31 411.099 297.623 422.457 307.846 432.661L333.548 432.523C333.515 434.157 333.551 435.834 333.409 437.46C323.981 436.891 314.545 438.05 305.114 437.785C301.211 434.175 297.87 429.825 294.376 425.821C288.076 418.591 281.726 411.406 275.324 404.266C253.82 380.497 232.159 356.87 210.343 333.387C190.228 334.65 170.099 335.688 149.96 336.502C134.51 337.263 119.032 338.27 103.562 338.449ZM90.2619 346.687C94.9224 346.112 98.2807 341.935 97.8424 337.259C97.4042 332.584 93.3283 329.104 88.642 329.404C85.4852 329.606 82.6881 331.509 81.3408 334.371C79.9935 337.233 80.3092 340.602 82.1648 343.163C84.0205 345.725 87.1225 347.075 90.2619 346.687Z"/>
	<path fill="#1F1E1F" d="M911.841 772.621C917.284 772.078 922.729 772.116 928.06 773.45C939.47 776.305 949.17 784.282 955.127 794.32C962.621 806.95 963.629 822.486 960 836.51C954.915 856.156 939.591 872.57 922.34 882.561C911.773 888.681 900.053 891.938 887.99 888.615C875.767 885.249 869.18 877.66 863.116 867.025C868.766 872.746 875.965 877.821 883.272 881.172C892.824 885.553 902.216 885.591 912.007 881.839C929.116 875.283 944.988 859.699 952.329 842.969C958.972 827.829 957.716 814.362 951.74 799.309C948.095 792.696 943.098 786.644 936.647 782.612C928.991 777.736 919.69 776.16 910.855 778.239C900.812 780.584 892.514 786.384 887.107 795.204C882.409 802.869 880.273 812.405 882.452 821.233C884.28 828.927 889.139 835.557 895.926 839.615C902.568 843.611 910.674 845.157 918.223 843.074C925.472 841.073 931.535 835.77 935.026 829.17C939.805 820.132 938.451 810.717 935.637 801.373C938.103 804.903 940.406 808.616 941.438 812.848C943.147 820.133 941.948 827.797 938.096 834.213C933.829 841.348 926.083 846.936 918.009 848.849C909.734 850.756 901.04 849.272 893.865 844.729C885.338 839.42 879.341 830.866 877.256 821.039C875.025 811.004 877.559 800.676 883.053 792.11C889.925 781.396 899.503 775.265 911.841 772.621Z"/>
	<path fill="#298C97" d="M595.632 868.864L598.944 868.682C603.347 868.443 607.628 869.416 610.955 872.477C613.754 875.053 615.106 878.614 615.065 882.389C615.044 886.431 613.405 890.295 610.513 893.119C607.798 895.741 604.118 897.121 600.348 896.931C597.6 896.816 595.091 896.058 592.657 894.813C578.676 908.336 564.826 921.996 551.111 935.789C542.89 943.977 534.535 952.82 525.554 960.134C527.604 964.721 529.288 969.526 527.249 974.48C525.809 977.98 522.87 980.439 519.356 981.722C515.111 983.272 510.156 983.095 506.09 981.089C502.92 979.526 500.416 976.903 499.285 973.53C497.858 969.271 498.99 964.943 501.013 961.093C502.678 957.923 504.914 955.862 508.415 954.893C513.425 953.506 517.924 954.815 522.581 956.605C534.908 945.337 546.678 933.566 558.571 921.852C568.704 911.871 578.952 902.051 588.89 891.868C586.79 888.467 584.824 884.526 585.779 880.405C586.845 875.796 589.644 874.015 591.972 870.413C593.164 869.448 594.183 869.206 595.632 868.864ZM515.261 977.41C520.119 976.409 523.257 971.672 522.285 966.808C521.312 961.944 516.596 958.778 511.726 959.72C506.814 960.671 503.613 965.438 504.594 970.344C505.575 975.25 510.361 978.421 515.261 977.41ZM601.269 891.716C603.358 891.46 605.29 890.473 606.722 888.93C609.269 886.187 609.832 882.145 608.132 878.81C606.433 875.475 602.832 873.556 599.115 874.004C594.221 874.595 590.733 879.044 591.328 883.938C591.924 888.832 596.376 892.315 601.269 891.716Z"/>
	<path fill="#298C97" d="M174.222 280.102C172.796 284.095 171.158 287.727 167.783 290.477C164.988 292.755 161.47 293.687 157.904 293.217C153.696 292.649 149.916 290.35 147.477 286.873C145.269 283.729 144.242 279.639 145 275.842C145.75 272.087 148.22 269.263 151.446 267.332C154.691 265.389 158.886 264.101 162.646 265.144C168.141 266.669 170.826 270.821 173.581 275.421C180.534 274.571 187.944 274.724 194.959 274.463C209.922 273.864 224.892 273.476 239.866 273.3C245.167 279.005 249.961 285.331 254.899 291.365C265.827 304.688 276.502 318.216 286.918 331.942C296.606 344.674 307.112 357.33 315.603 370.873L333.514 370.85L333.463 375.817C326.893 375.207 320.175 375.478 313.578 375.503C305.593 367.838 295.277 351.3 288.115 341.973C271.589 320.453 254.394 299.469 237.643 278.129C216.484 278.645 195.37 279.117 174.222 280.102ZM160.749 287.472C163.713 286.886 166.129 284.748 167.072 281.878C168.015 279.008 167.336 275.853 165.298 273.624C163.259 271.395 160.177 270.439 157.235 271.123C152.789 272.156 149.992 276.563 150.951 281.026C151.911 285.488 156.271 288.357 160.749 287.472Z"/>
	<path fill="#298C97" d="M486.982 170.612C482.217 172.042 477.087 172.684 472.564 170.098C469.2 168.175 467.019 164.772 466.204 161.028C465.31 156.744 466.209 152.28 468.69 148.675C470.711 145.704 473.722 143.434 477.307 142.805C481.339 142.098 486.066 143.501 489.264 146.005C492.363 148.432 494.564 152.74 494.991 156.634C495.405 160.399 493.219 164.265 491.352 167.376C498.013 175.387 503.845 184.309 509.932 192.784C520.258 207.292 530.704 221.713 541.271 236.046L576.854 284.797C583.977 294.499 591.835 304.145 598.172 314.363C596.31 314.541 594.359 314.474 592.484 314.521C555.666 267.8 523.229 217.717 486.982 170.612ZM481.776 165.692C483.734 165.348 485.511 164.333 486.801 162.82C489.099 160.127 489.498 156.296 487.804 153.187C486.111 150.078 482.675 148.335 479.166 148.805C476.1 149.215 473.494 151.251 472.355 154.128C471.215 157.005 471.72 160.273 473.675 162.672C475.629 165.071 478.728 166.226 481.776 165.692Z"/>
	<path fill="#298C97" d="M380.583 33.597C384.305 33.943 387.599 34.5056 390.644 36.8626C393.442 39.0282 395.239 42.3491 395.681 45.8437C396.211 50.0267 394.962 54.24 392.237 57.4578C388.872 61.3582 384.706 62.1762 379.841 62.4646C374.634 76.3401 368.68 90.2315 362.619 103.758C366.798 106.817 369.933 110.118 370.722 115.499C371.267 119.216 370.325 123.246 368 126.221C365.189 129.818 361.339 131.252 356.942 131.772C352.967 131.818 349.076 130.746 346.072 128.048C343.122 125.397 341.55 121.537 341.476 117.599C341.372 113.583 342.938 109.702 345.801 106.883C349.364 103.36 353.374 102.564 358.166 102.465C363.3 88.663 369.65 75.2429 375.15 61.5645C371.282 58.6381 368.334 55.7034 367.393 50.7417C366.694 47.0613 367.446 43.0985 369.587 40.0079C372.303 36.0873 376.092 34.5437 380.583 33.597ZM356.749 125.96C359.931 125.74 362.75 123.825 364.128 120.948C365.507 118.07 365.232 114.674 363.409 112.056C361.586 109.438 358.496 108.001 355.319 108.296C350.486 108.743 346.912 112.996 347.303 117.834C347.695 122.673 351.906 126.296 356.749 125.96ZM384.242 56.4497C388.674 55.1211 391.222 50.4844 389.968 46.0307C388.714 41.5769 384.121 38.951 379.647 40.1301C376.685 40.9106 374.374 43.2279 373.602 46.192C372.831 49.1561 373.718 52.3061 375.923 54.432C378.128 56.5579 381.308 57.3293 384.242 56.4497Z"/>
	<path fill="#298C97" d="M527.613 314.335C503.858 281.414 479.81 248.706 455.47 216.215C449.77 208.527 444.03 200.869 438.253 193.239C433.782 187.361 427.973 180.786 424.733 174.141C423.227 171.053 424.074 167.058 424.433 163.807C424.935 159.266 424.786 155.396 419.295 154.461C414.268 153.606 408.322 155.736 403.522 153.501L402.972 152.71C403.466 151.385 403.486 150.591 404.939 150.06C408.284 148.837 422.607 149.164 425.532 151.322C427.4 152.7 428.716 154.744 429.893 156.705C429.697 161.552 429 166.261 428.277 171.049C435.781 182.749 445.147 193.53 453.451 204.708L511.586 282.912C518.88 292.834 528.214 304.024 534.439 314.456C532.135 314.565 529.893 314.765 527.613 314.335Z"/>
	<path fill="#298C97" d="M465.734 632.565C467.554 632.523 469.357 632.421 471.164 632.681C463.73 641.699 454.878 649.681 446.455 657.768L411.546 691.28C413.327 696.091 414.616 701.597 413.018 706.649C411.959 709.996 409.659 712.46 406.532 714.012C402.59 715.948 398.043 716.251 393.879 714.854C389.717 713.453 386.037 710.405 384.194 706.385C382.607 702.924 382.682 699.002 384.049 695.481C385.55 691.614 388.425 687.895 392.326 686.261C397.841 683.951 403.358 685.713 408.584 687.791C415.446 681.759 421.781 674.978 428.366 668.635C440.906 656.699 453.363 644.675 465.734 632.565ZM400.488 709.712C403.557 708.153 405.926 706.65 407.129 703.269C408.035 700.718 407.966 697.914 406.768 695.468C405.606 693.091 403.372 691.416 400.848 690.702C399.415 690.296 398.186 690.346 396.72 690.486C393.31 692.363 390.847 694.071 389.72 697.995C388.996 700.517 389.205 703.223 390.58 705.49C391.959 707.766 394.526 709.134 397.075 709.679C398.25 709.93 399.304 709.834 400.488 709.712Z"/>
	<path fill="#298C97" d="M497.18 680.312C494.566 675.555 492.479 670.535 494.146 665.038C495.312 661.196 498.234 658.253 501.759 656.454C505.643 654.472 510.208 653.826 514.375 655.29C518.385 656.704 521.621 659.729 523.3 663.635C524.975 667.637 524.722 672.341 523.077 676.31C521.566 679.954 518.708 683.155 515.025 684.673C510.311 686.616 505.431 685.229 500.865 683.656C487.714 694.138 475.858 706.874 463.898 718.677C459.345 723.17 454.502 728.868 449.258 732.514C448.419 731.282 447.77 730.268 446.486 729.442C452.161 722.992 458.632 717.098 464.831 711.147L497.18 680.312ZM510.476 679.146C515.079 678.419 518.442 674.411 518.359 669.751C518.311 667.047 517.094 664.496 515.021 662.758C512.949 661.02 510.225 660.265 507.554 660.688C502.457 661.496 498.981 666.282 499.787 671.378C500.594 676.475 505.379 679.952 510.476 679.146Z"/>
	<path fill="#298C97" d="M315.115 308.532C310.926 310.576 306.417 311.734 301.879 310.047C298.208 308.683 295.322 305.595 293.755 302.058C292.181 298.505 291.934 294.375 293.444 290.756C294.822 287.452 297.406 284.983 300.707 283.631C304.27 282.171 308.957 281.93 312.524 283.523C316.024 285.085 319.166 288.028 320.356 291.727C321.891 296.503 320.475 300.684 318.235 304.944C324.252 308.534 330.336 313.501 336.98 315.775C336.025 317.485 335.093 318.781 333.685 320.146C327.304 316.551 321.089 312.776 315.115 308.532ZM308.744 304.767C313.26 303.762 316.127 299.311 315.175 294.783C314.222 290.255 309.804 287.337 305.266 288.237C302.283 288.829 299.849 290.978 298.892 293.865C297.935 296.751 298.604 299.929 300.643 302.185C302.682 304.441 305.776 305.427 308.744 304.767Z"/>
	<path fill="#298C97" d="M449.258 732.514C447.978 733.964 449.172 744.429 446.245 749.173C444.486 752.024 441.697 753.38 438.486 753.99C434.061 754.831 429.321 754.632 425.521 752.009C422.268 749.806 420.074 746.354 419.461 742.473C418.794 738.388 420 734.128 422.479 730.842C432.026 718.187 443.015 729.893 446.486 729.442C447.77 730.268 448.419 731.282 449.258 732.514ZM436.235 748.414C440.987 747.393 444.061 742.775 443.171 737.997C442.281 733.22 437.75 730.019 432.949 730.777C429.724 731.286 427.03 733.507 425.915 736.575C424.8 739.644 425.439 743.076 427.585 745.538C429.73 747.999 433.043 749.101 436.235 748.414Z"/>
	<path fill="#298C97" d="M584.181 832.38L583.809 831.225C582.442 831.098 581.052 830.977 579.724 830.612C575.914 829.564 572.807 827.19 570.977 823.665C569.025 819.878 568.746 815.447 570.208 811.446C571.525 807.85 574.131 804.859 577.638 803.266C582.52 801.048 587.373 802.08 592.175 803.818C593.292 804.844 594.489 805.85 595.539 806.941C598.167 810.963 599.552 814.936 598.469 819.771C597.615 823.653 595.184 827.004 591.76 829.022C590.43 829.807 588.952 830.529 587.425 830.803C586.103 831.205 584.994 831.219 584.181 832.38ZM586.77 824.659C591.296 823.151 593.784 818.299 592.365 813.744C590.946 809.19 586.142 806.609 581.561 807.939C578.517 808.823 576.188 811.282 575.472 814.37C574.755 817.457 575.763 820.691 578.106 822.825C580.45 824.959 583.763 825.66 586.77 824.659Z"/>
	<path fill="#1F1E1F" d="M199.119 590.042C204.88 590.14 210.821 591.729 216.47 592.872L216.028 603.629C208.797 605.228 201.018 608.301 195.181 612.92C193.95 613.992 192.686 615.07 191.288 615.922C189.44 617.049 186.758 617.833 184.633 617.062C183.55 616.669 182.709 615.853 182.177 614.846C180.757 612.158 181.264 608.402 182.152 605.63C184.777 597.444 191.956 593.619 199.119 590.042Z"/>
	<path fill="#247DB1" d="M635.139 760.501C652.109 760.555 669.488 759.911 686.408 761.17C683.718 762.575 680.536 764.486 677.558 765.151C664.454 764.552 651.26 764.849 638.143 764.893C631.887 770.095 626.184 776.317 620.347 782.003C611.967 790.165 603.256 798.141 595.539 806.941C594.489 805.85 593.292 804.844 592.175 803.818C601.117 793.897 611.152 784.759 620.721 775.441C625.657 770.635 630.825 765.884 635.139 760.501Z"/>
	<path fill="#247DB1" d="M584.181 832.38C584.994 831.219 586.103 831.205 587.425 830.803C589.695 839.489 591.532 848.267 593.378 857.051C594.171 860.826 595.445 865.04 595.632 868.864C594.183 869.206 593.164 869.448 591.972 870.413C588.277 858.305 586.505 844.856 584.181 832.38Z"/>
</svg>
