<svg xmlns="http://www.w3.org/2000/svg" width="24" height="24" viewBox="0 0 24 24"><path d="M5.8 3.7c1-1 2.7-1 3.7 0L10.7 5c1 1 1 2.7 0 3.7l-.5.5c0 .1 0 .3.2.5.4.7 1 1.5 2.2 2.7 1.1 1 2 1.8 2.6 2.1l.6.2.5-.5c1-1 2.7-1 3.7 0l1.2 1.2c1 1 1 2.7 0 3.7a30.3 30.3 0 0 1-1.9 2 4.2 4.2 0 0 1-3.7.2 8.7 8.7 0 0 1-.7-.3l.4-.9-.4 1c-1.8-1-4-2.5-6.3-4.8a26 26 0 0 1-4.6-6c-.4-.8-.8-1.6-.9-2.2V7c0-.2 0-.6.3-1l2.4-2.3zm10 15.4a4.7 4.7 0 0 0 1.2.4c.6 0 1-.1 1.3-.3l.3-.3a13.8 13.8 0 0 0 1.1-1.2h.1c.3-.3.3-.7 0-1l-1.2-1.1a.7.7 0 0 0-.9 0l-.6.5c-.4.5-1 .6-1.4.5-.5 0-1-.2-1.4-.4-.9-.5-2-1.3-3.1-2.5-1.2-1.2-2-2.2-2.5-3.1-.3-.4-.5-1-.5-1.4 0-.5 0-1 .5-1.4l.6-.6c.2-.3.2-.7 0-.9L8 5.1a.7.7 0 0 0-1 0L5 7.3v.3l.8 1.7a24 24 0 0 0 4.2 5.5c2.2 2.1 4.2 3.6 5.7 4.3z"></path></svg>