<svg width="40" height="40" viewBox="0 0 40 40" fill="none" xmlns="http://www.w3.org/2000/svg">
<path d="M8.57143 6.07143C8.57143 5.87418 8.73133 5.71429 8.92857 5.71429H11.7857C11.983 5.71429 12.1429 5.87418 12.1429 6.07143C12.1429 6.26867 11.983 6.42857 11.7857 6.42857H9.28571V10.3571C9.28571 10.5544 9.12582 10.7143 8.92857 10.7143C8.73133 10.7143 8.57143 10.5544 8.57143 10.3571V6.07143Z" fill="#978D80"/>
<path fill-rule="evenodd" clip-rule="evenodd" d="M34.2857 32.8571C34.2857 33.2516 33.9659 33.5714 33.5714 33.5714H6.42857C6.03408 33.5714 5.71429 33.2516 5.71429 32.8571V3.57143C5.71429 3.17694 6.03408 2.85714 6.42857 2.85714H33.5714C33.9659 2.85714 34.2857 3.17694 34.2857 3.57143V32.8571ZM33.5714 3.57143H20V17.8571H33.5714V3.57143ZM6.42857 18.5714V32.8571H19.2857V18.5714H6.42857ZM19.2857 17.8571H6.42857V3.57143H19.2857V17.8571ZM20 18.5714V32.8571H33.5714V18.5714H20Z" fill="#978D80"/>
<path fill-rule="evenodd" clip-rule="evenodd" d="M2.85714 35.7143V0.714286C2.85714 0.319797 3.17694 0 3.57143 0H36.4286C36.8231 0 37.1429 0.319797 37.1429 0.714286V35.7143H39.2857C39.6802 35.7143 40 36.0341 40 36.4286V39.2857C40 39.6802 39.6802 40 39.2857 40H0.714285C0.319796 40 0 39.6802 0 39.2857V36.4286C0 36.0341 0.319797 35.7143 0.714286 35.7143H2.85714ZM3.57143 0.714286H36.4286V35.7143H3.57143L3.57143 0.714286ZM0.714286 36.4286L0.714285 39.2857H39.2857V36.4286H0.714286Z" fill="#978D80"/>
</svg>
