<svg xmlns="http://www.w3.org/2000/svg" width="55" height="55" viewBox="0 0 24 24" class="uk-svg"><path d="m21.297 23.395-.016-.02V0H2.688v23.376l-.016.02.015.012V24h18.594v-.592ZM10.18 12.375h1.023l-.817 1.055Zm-.404 1.844L3.92 21.784l1.735-9.409h3.761Zm2.598-1.122 1.021 1.319-1.021 5.289Zm.39-.722h1.025l-.205 1.06Zm1.79 0h3.734l1.767 9.418-5.859-7.568Zm5.976 7.887-1.48-7.887h1.48Zm0-8.637H18.91l-1.204-6.418 2.825-3.668ZM17.52 4.22 16.87.75h3.323Zm-.613.795L15.664 6.63l.784-4.062Zm.185.988 1.056 5.623h-3.449l.648-3.356Zm-3.157 5.623h-1.173l1.566-2.033Zm-3.901 0-.4-2.041 1.573 2.041Zm-.764 0H5.793l1.046-5.671 1.771 2.3ZM7.02 4.963l.459-2.486.808 4.13Zm-.615-.799L3.776.75h3.26Zm-.183.991-1.193 6.47H3.437V1.539Zm-2.785 7.22h1.454l-1.455 7.889Zm6.53 2.822 1.576 8.053h-7.81Zm.61-.788 1.015-1.311v6.498Zm3.43.797 6.227 8.044h-7.78ZM16.034.75l-1.39 7.203-2.27 2.946V.75Zm-4.441 10.149L9.312 7.937 7.906.75h3.688Z"></path></svg>