<svg xmlns="http://www.w3.org/2000/svg" width="55" height="55" viewBox="0 0 24 24" class="uk-svg"><path d="M24.019 17.516 24 17.459V5.906H0v11.875h24v-.26ZM7.75 15.889 5.29 8.47l2.46-1.63Zm.5-3.933 1.142.82L8.25 15.99Zm.196-.475 1.817-1.154-.696 1.959Zm2.502-1.59 1.773-1.126 3.06 7.982-5.792-4.158Zm.272-.765.789-2.218.529 1.381Zm4.842 6.96-2.91-7.594 2.91-1.85Zm.5-4.094 1.01.818-1.01 3.069Zm.163-.51 1.679-1.198-.664 2.018Zm2.366-1.688 1.5-1.069 2.65 8.03-5.086-4.117Zm.265-.803.66-2.006.41 1.243Zm.995-2.585h2.63l-2.129 1.518Zm-1.683 3.076-2.106 1.501V6.406h3.119Zm-5.7-1.466-.617-1.61h3.151Zm-2.433 1.546L8.25 11.014V6.406h3.407ZM5.127 7.98l-.521-1.573H7.5Zm-.432.286-1.075.712.65-1.99Zm.163.492 2.646 7.979-5.12-3.976.986-3.017Zm-2.895 3.677-1.222-.949 1.957-1.297Zm-.165.505L.5 16.908v-4.977Zm.42.326 5.173 4.016H.905Zm7.597-.185 5.852 4.201H8.32Zm8.173.066 5.11 4.135h-6.47Zm3.028-4.724L23.5 6.65v9.294ZM3.936 6.406l-.987 3.016L.5 11.044V6.406Z"></path></svg>