<svg xmlns="http://www.w3.org/2000/svg" width="55" height="55" viewBox="0 0 24 24" class="uk-svg"><path d="M0 1.969V22.03h24V1.97Zm.75.75h10.875V21.28H.75Zm22.5 18.562H12.375V2.72H23.25Z"></path><path d="m8.593 9.171-.53-.53-1.977 1.977-1.977-1.977-.53.53 1.976 1.977-1.976 1.977.53.531 1.977-1.977 1.977 1.977.53-.531-1.977-1.977 1.977-1.977zM15.023 13.383l.532.531 1.976-1.977 1.977 1.977.531-.531-1.977-1.977 1.977-1.977-.531-.53-1.977 1.976-1.976-1.976-.532.53L17 11.406l-1.977 1.977z"></path></svg>