<svg xmlns="http://www.w3.org/2000/svg" width="55" height="55" viewBox="0 0 24 24" class="uk-svg"><path d="M0 5.906v11.875h24V5.906Zm16.063.5v10.875H8.25V6.406ZM.5 6.406h7.25v10.875H.5Zm23 10.875h-6.938V6.406H23.5Z"></path><path d="m5.755 9.833-.354-.354-1.362 1.363-1.362-1.363-.354.354 1.363 1.362-1.363 1.363.354.353 1.362-1.362 1.362 1.362.354-.353-1.362-1.363 1.362-1.362zM10.44 12.831l.354.354 1.431-1.431 1.43 1.431.354-.354-1.431-1.431 1.294-1.294-.353-.353-1.294 1.294-1.294-1.294-.354.353 1.294 1.294-1.431 1.431zM18.296 12.831l.353.354 1.363-1.363 1.362 1.363.354-.354-1.363-1.362 1.363-1.363-.354-.353-1.362 1.362-1.363-1.362-.353.353 1.362 1.363-1.362 1.362z"></path></svg>