<svg xmlns="http://www.w3.org/2000/svg" width="55" height="55" viewBox="0 0 24 24" class="uk-svg"><defs><style>.cls-1{fill:#b7b7b7}</style></defs><path d="m7.44 13.1 1.09 1.41-1.09 5.82V13.1zM8.93 12.38l-.22 1.14-.88-1.14h1.1zM15.59 12.38v7.73l-1.42-7.73h1.42zM9.14 15.3l6.16 7.95H7.65l1.49-7.95zM13.4 12.38l1.75 9.45-5.82-7.52.36-1.93h3.71z" class="cls-1"></path><path d="m7.44 20.33 1.09-5.82-1.09-1.41Zm1.27-6.81.22-1.14h-1.1Zm.36-1.9.4-2.13-1.65 2.13Zm.7-3.75L11.1.75H7.44V10.9Zm2.26-2.93-.47-2.55-.78 4.17Zm1.23 6.68-1.05-5.69-1.73 2.25-.65 3.44Zm2.04 11.63L9.14 15.3l-1.49 7.95Zm-.15-1.42-1.75-9.45H9.69l-.36 1.93ZM12.64 4.14 15.25.75h-3.23Zm2.95 15.97v-7.73h-1.42Zm0-8.49V1.54l-2.76 3.59 1.2 6.49ZM16.34 0v23.38l.02.02-.02.01V24H6.69V0Z"></path></svg>