<svg xmlns="http://www.w3.org/2000/svg" width="55" height="55" viewBox="0 0 24 24" class="uk-svg"><path d="M0 1.969V22.03h24V1.97Zm16.39 6.327 2.283-1.727L22.9 20.553l-8.017-7.29Zm-2.121 4.409-1.683-1.53 2.788-2.11Zm2.492-5.63 1.035-3.407.645 2.136Zm1.532-4.356h4.225L19.08 5.32Zm-2.548 5.126-3.37 2.55V2.719H17.3Zm-3.37 4.151 1.653 1.503-1.653 5.443Zm2.266 2.061 7.946 7.224H12.448Zm4.67-7.97 3.939-2.982v16.011ZM.75 2.718h10.875V21.28H.75Z"></path><path d="m8.593 9.171-.53-.53-1.977 1.977-1.977-1.977-.53.53 1.976 1.977-1.976 1.977.53.531 1.977-1.977 1.977 1.977.53-.531-1.977-1.977 1.977-1.977z"></path></svg>