<svg xmlns="http://www.w3.org/2000/svg" width="55" height="55" viewBox="0 0 24 24" class="uk-svg"><path d="M0 5.906v11.875h24V5.906Zm11.03 3.756 1.653-.996 3.085 8.05-5.72-4.295Zm-1.4 2.445-1.183-.889 1.908-1.15Zm1.664-3.188.715-2.01.492 1.283Zm1.057-2.513h3.114l-2.53 1.524Zm-1.732 2.92L8.25 10.752V6.406h3.407Zm-2.369 2.37 1.205.904-1.205 3.389Zm1.623 1.219 5.815 4.366H8.32Zm3.245-4.51 2.944-1.775v9.457ZM.5 6.406h7.25v10.875H.5Zm23 10.875h-6.938V6.406H23.5Z"></path><path d="m5.755 9.833-.354-.354-1.362 1.363-1.362-1.363-.354.354 1.363 1.362-1.363 1.363.354.353 1.362-1.362 1.362 1.362.354-.353-1.362-1.363 1.362-1.362zM18.296 12.831l.353.354 1.363-1.363 1.362 1.363.354-.354-1.363-1.362 1.363-1.363-.354-.353-1.362 1.362-1.363-1.362-.353.353 1.362 1.363-1.362 1.362z"></path></svg>