<svg xmlns="http://www.w3.org/2000/svg" width="55" height="55" viewBox="0 0 24 24" class="uk-svg"><path d="m16.36 23.395-.016-.02V0H6.687v24h9.657v-.592Zm-6.67-11.02h3.712l1.746 9.456-5.82-7.518Zm-.978 1.144-.885-1.144h1.1Zm5.453-1.144h1.428v7.735Zm1.428-.75h-1.566l-1.2-6.495 2.767-3.591Zm-2.948-7.486L12.019.75h3.236Zm-.616.798L10.78 6.56l.78-4.165Zm.183.991 1.052 5.697H9.831l.645-3.442Zm-3.144 5.697H7.824l1.643-2.133Zm-.54 2.88-1.09 5.821v-7.23Zm.614.794 6.156 7.951H7.653ZM11.105.75 9.77 7.869l-2.334 3.03V.75Z"></path></svg>