<svg xmlns="http://www.w3.org/2000/svg" width="55" height="55" viewBox="0 0 24 24" class="uk-svg"><path d="M24 5.906H0v11.875h.494l.006.008.01-.008H24Zm-16.25 5.09-6.735-4.59H7.75Zm-.17.489L.5 17.148V6.66Zm.67-5.079h7.813v10.875H8.25Zm8.313 0h6.418l-6.418 4.577Zm0 5.587 6.534 5.288h-6.535Zm.163-.512 6.774-4.83v10.313Zm-8.976.508v5.292H1.135Z"></path><path d="M14.009 12.831 12.578 11.4l1.294-1.294-.353-.353-1.294 1.294-1.294-1.294-.354.353 1.294 1.294-1.431 1.431.354.354 1.431-1.431 1.43 1.431.354-.354z"></path></svg>