<svg xmlns="http://www.w3.org/2000/svg" width="55" height="55" viewBox="0 0 24 24" class="uk-svg"><defs><style>.cls-1{fill:#b7b7b7}</style></defs><path d="m9.87 15.32 1.47 7.93H3.73l6.14-7.93zM4.76 12.38l-1.32 6.85v-6.85h1.32zM9.32 12.38l.37 1.96-6.05 7.81 1.89-9.77h3.79zM11.2 12.38l-.9 1.16-.22-1.16h1.12zM11.59 13.1v7.39l-1.11-5.96 1.11-1.43zM12.38 13.1l7.86 10.15h-7.86V13.1zM20.53 12.38v10.03l-7.77-10.03h7.77z" class="cls-1"></path><path d="M20.24 23.25 12.38 13.1v10.15ZM12.38 10.9 20.19.75h-7.81Zm8.15.72V1.54l-7.77 10.08Zm0 10.79V12.38h-7.77ZM8.23 6.54l-.77-4.15-.49 2.51Zm.95 5.08-.64-3.46-1.76-2.28-1.11 5.74Zm.06-3.78 2.35 3.06V.75H7.92Zm2.35 5.26-1.11 1.43 1.11 5.96Zm-1.29.44.9-1.16h-1.12Zm.91-1.92L9.54 9.46l.4 2.16Zm-7.77 0h1.47l1.26-6.53-2.73-3.55Zm0 7.61 1.32-6.85H3.44ZM2.69 0h18.59v23.38l.02.02-.02.01V24H2.69v-.43l-.09-.02.09-.45Zm1.09.75 2.58 3.36.65-3.36Zm1.75 11.63-1.89 9.77 6.05-7.81-.37-1.96Zm4.34 2.94-6.14 7.93h7.61Z"></path></svg>