<svg xmlns="http://www.w3.org/2000/svg" width="55" height="55" viewBox="0 0 24 24" class="uk-svg"><path d="M0 1.969V22.03h24V1.97ZM7.778 9.04l1.445 4.784-8.016 6.526L5.201 6.907ZM5.433 6.126 6.16 3.68l1.227 4.06Zm3.39 3.779 2.586 2.14-1.557 1.267Zm2.802 2.93v6.345l-1.538-5.091Zm0-1.585L8.43 8.606 6.652 2.719h4.973Zm.75-8.531h10.25l-10.25 8.528Zm-7.57 2.887L1.317 2.719h4.346Zm-.232.782L.75 19.257V3.224ZM9.458 14.6l2.018 6.681H1.252Zm2.917-1.758 10.255 8.44H12.375Zm.213-.797 10.662-8.87v17.644Z"></path></svg>