<svg xmlns="http://www.w3.org/2000/svg" width="55" height="55" viewBox="0 0 24 24" class="uk-svg"><path d="M0 5.906v11.875h24V5.906Zm5.232 3.979.912 2.749-5.102 4.08 2.62-7.9ZM3.825 8.322l.444-1.34.704 2.121Zm2.088 2.027 1.667 1.136-1.02.815Zm1.837 1.64v3.9l-1.022-3.082Zm0-.993L5.654 9.568 4.606 6.406H7.75ZM3.396 8.029 1.015 6.406h2.919Zm-.164.493L.5 16.761V6.66Zm3.08 4.618 1.373 4.141h-6.55ZM8.25 6.406h7.813v10.875H8.25Zm8.313 0h6.418l-6.418 4.577Zm0 5.587 6.534 5.288h-6.535Zm.163-.512 6.774-4.83v10.313Z"></path><path d="M14.009 12.831 12.578 11.4l1.294-1.294-.353-.353-1.294 1.294-1.294-1.294-.354.353 1.294 1.294-1.431 1.431.354.354 1.431-1.431 1.43 1.431.354-.354z"></path></svg>