<svg xmlns="http://www.w3.org/2000/svg" width="55" height="55" viewBox="0 0 24 24" class="uk-svg"><defs><style>.cls-1{fill:#b7b7b7}</style></defs><path d="M11.2 12.38 3.44 22.41V12.38h7.76zM11.59 13.1v10.15H3.73l7.86-10.15zM12.38 13.1l7.86 10.15h-7.86V13.1zM20.53 12.38v10.03l-7.77-10.03h7.77z" class="cls-1"></path><path d="M20.24 23.25 12.38 13.1v10.15ZM12.38 10.9 20.19.75h-7.81Zm8.15.72V1.54l-7.77 10.08Zm0 10.79V12.38h-7.77Zm-17.09 0 7.76-10.03H3.44Zm0-10.79h7.77L3.44 1.54Zm8.15 11.63V13.1L3.73 23.25Zm0-12.35V.75H3.78ZM21.28 24H2.69v-.59l-.02-.01.02-.02V0h18.59v23.38l.02.02-.02.01Z"></path></svg>