<svg xmlns="http://www.w3.org/2000/svg" width="55" height="55" viewBox="0 0 24 24" class="uk-svg"><path d="M0 1.969V22.03h24V1.97ZM7.778 9.04l1.445 4.784-8.016 6.526L5.201 6.907ZM5.433 6.126 6.16 3.68l1.227 4.06Zm3.39 3.779 2.586 2.14-1.557 1.267Zm2.802 2.93v6.345l-1.538-5.091Zm.75.007 1.513 1.245-1.513 5.059Zm.214-.797L15.13 9.93l-1.01 3.376Zm3.584-2.982 2.584-2.15 4.09 13.574-8.098-6.664Zm.388-1.299 1.221-4.084.74 2.453Zm1.716-5.045h4.348l-3.477 2.893Zm-2.758 5.913-3.144 2.615V2.72h4.912Zm-3.894 2.618L8.43 8.606 6.652 2.719h4.973Zm-6.82-5.644L1.317 2.72h4.346Zm-.232.782L.75 19.257V3.224ZM9.458 14.6l2.018 6.681H1.252Zm5.058.004 8.114 6.677H12.52Zm4.868-8.212 3.866-3.217v16.05Z"></path></svg>