<svg xmlns="http://www.w3.org/2000/svg" width="55" height="55" viewBox="0 0 24 24" class="uk-svg"><path d="M14.009 12.831 12.578 11.4l1.294-1.294-.353-.353-1.294 1.294-1.294-1.294-.354.353 1.294 1.294-1.431 1.431.354.354 1.431-1.431 1.43 1.431.354-.354z"></path><path d="M24.019 17.516 24 17.459V5.906H0v11.875h24v-.26ZM5.232 9.885l.912 2.749-5.102 4.08 2.62-7.9ZM3.825 8.322l.444-1.34.704 2.121Zm2.088 2.027 1.667 1.136-1.02.815Zm1.837 1.64v3.9l-1.022-3.082Zm0-.993L5.654 9.568 4.606 6.406H7.75ZM3.396 8.029 1.015 6.406h2.919Zm-.164.493L.5 16.761V6.66Zm3.08 4.618 1.373 4.141h-6.55ZM8.25 6.406h7.813v10.875H8.25Zm8.313 5.587 1.01.817-1.01 3.069Zm.163-.512 1.678-1.196-.664 2.017Zm2.365-1.686 1.5-1.07 2.65 8.03-5.086-4.116Zm.265-.804.66-2.005.41 1.242Zm.995-2.585h2.63l-2.129 1.518Zm-1.683 3.076-2.106 1.501V6.406h3.119Zm-.68 3.664 5.11 4.135h-6.47Zm3.029-4.724L23.5 6.65v9.294Z"></path></svg>