<svg xmlns="http://www.w3.org/2000/svg" width="55" height="55" viewBox="0 0 24 24" preserveAspectRatio="xMidYMid meet" class="uk-svg"><defs><style>.cls-1{fill:#b7b7b7}</style></defs><path d="M2.16 12.38.84 19.23v-6.85h1.32zM6.72 12.38l.37 1.96-6.05 7.81 1.89-9.77h3.79zM7.27 15.32l1.47 7.93H1.13l6.14-7.93zM8.99 13.1v7.39l-1.11-5.96 1.11-1.43zM8.6 12.38l-.9 1.16-.22-1.16H8.6zM11.28 12.38l-.22 1.15-.9-1.15h1.12zM9.78 13.1l1.1 1.42-1.1 5.89V13.1zM11.49 15.31l6.15 7.94h-7.63l1.48-7.94zM15.73 12.38l1.75 9.44-5.81-7.49.37-1.95h3.69zM17.93 12.38v7.76l-1.43-7.76h1.43z" class="cls-1"></path><path d="m14.36 4.94-.46-2.51-.77 4.12Zm1.24 6.68-1.06-5.69-1.71 2.24-.65 3.45Zm1.88 10.2-1.75-9.44h-3.69l-.37 1.95Zm-2.5-17.68L17.59.75h-3.24Zm2.95 16v-7.76H16.5Zm0-8.52V1.54l-2.77 3.6 1.2 6.48Zm-8.94 8.87V13.1l-1.11 1.43Zm2.5-5.18-1.48 7.94h7.63Zm-1.71 5.1 1.1-5.89-1.1-1.42Zm1.28-6.88.22-1.15h-1.12ZM9.78 10.9l2.34-3.05 1.33-7.1H9.78Zm1.64.72.4-2.15-1.66 2.15ZM.84 19.23l1.32-6.85H.84ZM3.57 5.09.84 1.54v10.08h1.47Zm.19-.98L4.41.75H1.18Zm1.87 2.43-.77-4.15-.49 2.51Zm.95 5.08-.64-3.46-1.76-2.28-1.11 5.74Zm.06-3.78 2.35 3.06V.75H5.32Zm.45 6.5-.37-1.96H2.93l-1.89 9.77Zm1.65 8.91-1.47-7.93-6.14 7.93Zm-1.4-11.63h1.27L6.94 9.46Zm.14.76.22 1.16.9-1.16ZM.09 0h18.59v23.38l.02.02-.02.01V24H.09v-.43L0 23.55l.09-.45Z"></path></svg>