<svg xmlns="http://www.w3.org/2000/svg" width="55" height="55" viewBox="0 0 24 24" class="uk-svg"><path d="m21.297 23.395-.016-.02V0H2.688v23.376l-.016.02.015.012V24h18.594v-.592Zm-8.532-11.02h7.766v10.032Zm7.766-.75h-7.77l7.77-10.086Zm-10.35.75h1.024l-.817 1.055Zm-.403 1.844L3.92 21.784l1.735-9.409h3.761Zm.257-2.594-.4-2.041 1.572 2.041Zm-.765 0H5.793l1.046-5.671 1.771 2.3ZM7.021 4.963l.459-2.486.808 4.13Zm-.615-.799L3.776.75h3.26Zm-.183.991-1.193 6.47H3.437V1.539Zm-2.785 7.22h1.454l-1.455 7.889Zm6.53 2.822 1.576 8.053h-7.81Zm.61-.788 1.015-1.311v6.498ZM20.192.75l-7.817 10.149V.75Zm-8.598 10.149L9.312 7.937 7.906.75h3.688Zm.781 2.198 7.86 10.153h-7.86Z"></path></svg>