<svg xmlns="http://www.w3.org/2000/svg" width="55" height="55" viewBox="0 0 24 24" class="uk-svg"><path d="M0 5.906v11.875h24V5.906Zm7.75 9.983L5.29 8.471l2.46-1.63Zm8.313 1.061-7.617-5.469 7.617-4.84Zm.5-10.544h6.418l-6.418 4.577ZM8.25 11.014V6.406h7.252ZM5.127 7.979l-.521-1.573H7.5Zm-.432.286-1.075.712.65-1.99Zm.163.492 2.646 7.979-5.12-3.976.986-3.017Zm-2.895 3.677-1.222-.949 1.957-1.297Zm-.165.505L.5 16.908v-4.977Zm.42.326 5.173 4.016H.905Zm6.032-1.309 7.416 5.325H8.25Zm8.313.037 6.534 5.288h-6.535Zm.163-.511L23.5 6.65v10.313ZM3.935 6.406l-.987 3.016L.5 11.044V6.406Z"></path></svg>