<svg xmlns="http://www.w3.org/2000/svg" width="55" height="55" viewBox="0 0 24 24" class="uk-svg"><path d="M0 5.906v11.875h24V5.906Zm7.75 9.983L5.29 8.471l2.46-1.63Zm.5-3.933 1.142.82L8.25 15.99Zm.196-.475 1.817-1.154-.696 1.959Zm2.502-1.59 1.773-1.126 3.06 7.982-5.792-4.158Zm.272-.765.789-2.218.529 1.381Zm1.931-.634 2.911-1.85v9.444Zm3.411-2.086h6.419l-6.418 4.577Zm-3.593 1.61-.617-1.61h3.15Zm-2.434 1.546L8.25 11.014V6.406h3.407ZM5.127 7.98l-.521-1.573H7.5Zm-.432.286-1.075.712.65-1.99Zm.163.492 2.646 7.979-5.12-3.976.986-3.017Zm-2.895 3.677-1.222-.949 1.957-1.297Zm-.165.505L.5 16.908v-4.977Zm.42.326 5.173 4.016H.905Zm7.597-.185 5.852 4.201H8.32Zm6.748-1.087 6.534 5.288h-6.535Zm.163-.512 6.774-4.83v10.313ZM3.935 6.406l-.987 3.016L.5 11.044V6.406Z"></path></svg>