<?xml version="1.0" encoding="utf-8" ?><svg xmlns="http://www.w3.org/2000/svg" xmlns:xlink="http://www.w3.org/1999/xlink" width="1024" height="1024" viewBox="0 0 1024 1024"><path fill="#638A42" d="M511.297 29.8395C513.717 29.8993 517.579 34.0264 519.479 35.6757C530.445 45.1963 540.726 55.4939 551.52 65.215L686.966 189.417C790.531 283.822 893.53 378.846 995.957 474.484L933.241 474.345C918.923 474.295 904.485 473.936 890.18 474.573C888.857 584.764 891.561 695.026 889.86 805.218C884.683 808.761 878.451 811.372 872.83 814.187L843.032 829.183L732.344 884.376L602.091 949.066C583.179 958.615 564.122 967.708 545.111 977.041C534.126 982.434 523.214 988.81 511.811 993.229C490.204 981.65 467.84 971.539 445.938 960.542L213.984 845.416C187.502 832.234 160.38 820.05 134.211 806.284C133.271 786.448 134.092 766.192 134.058 746.312L134.003 617.431L134.016 522.437L134.028 493.014C134.035 486.833 133.768 480.506 134.384 474.356L26.9338 474.575C41.64 463.291 54.459 449.325 68.1822 436.9L171.117 342.2L379.861 150.693L472.565 66.2696C485.605 54.3225 497.902 41.3672 511.297 29.8395ZM100.565 446.397C120.943 446.531 141.446 445.929 161.803 446.566C162.856 475.285 162.01 504.358 162.015 533.118L162.023 697.175L162.019 757.048C162.017 767.533 161.361 778.496 162.325 788.916C188.003 799.854 214.275 814.534 239.465 827.002L404.112 908.723L466.12 939.073C481.315 946.669 496.222 955.026 511.832 961.749C530.184 953.925 547.803 944.149 565.738 935.414L676.801 880.664L709.085 864.696C715.907 861.255 722.613 857.509 729.514 854.237C732.373 853.349 735.439 851.345 738.148 849.977C744.851 846.548 751.593 843.194 758.371 839.916C768.226 834.628 778.497 830.17 788.354 824.889C793.812 822.359 799.342 819.662 804.601 816.74C823.703 808.209 842.093 798.116 860.914 788.984C860.508 766.766 860.903 744.481 860.918 722.255L861.139 580.285L860.94 488.485C860.927 474.759 860.259 460.695 860.881 447.01L925.225 446.959C912.519 434.629 899.263 422.761 886.272 410.723L822.514 351.614L636.697 179.908C601.895 148.697 567.376 117.174 533.142 85.3414C526.379 79.0993 519.345 73.1493 512.647 66.838L229.97 325.792L149.864 400.013C137.407 411.33 125.141 422.854 113.07 434.581C108.965 438.531 104.374 442.168 100.565 446.397Z"/><path fill="#0C4A58" d="M512.599 106.656C520.001 112.532 526.822 119.448 533.805 125.842C551.41 141.965 568.613 158.53 586.326 174.538L687.186 267.435L747.698 324.643C757.883 334.131 768.408 343.261 778.625 352.716C790.104 363.339 801.233 374.344 812.724 384.956C820.084 391.752 827.746 398.206 835.194 404.903C834.585 420.767 835.214 436.774 835.316 452.653L835.533 533.024C835.789 613.471 835.501 693.919 834.668 774.362C826.125 778.904 817.197 782.8 808.515 787.079L756.491 812.829C752.101 814.917 747.745 817.078 743.427 819.31C740.738 820.235 737.741 821.616 735.417 823.273C729.575 825.885 716.792 831.05 712.244 834.645C709.731 835.76 707.103 836.778 704.723 838.157C689.412 845.634 674.354 853.609 658.949 860.884C659.038 859.556 659.125 858.835 659.835 857.692C660.446 856.709 660.715 856.013 660.986 854.891L660.501 854.375C658.804 855.048 657.814 855.968 656.498 857.224C655.787 857.903 655.733 857.751 654.801 857.836C654.523 856.688 654.719 857.26 654.192 856.126C652.788 855.859 651.432 856.179 650.04 856.397C648.57 857.1 646.753 857.74 645.433 858.668C645.847 859.91 645.334 860.835 644.891 861.988C645.567 864.556 647.646 863.502 647.028 866.766L545.507 917.066C538.13 920.75 530.792 924.513 523.497 928.356C519.393 930.49 515.235 932.987 510.868 934.52C486.886 922.102 462.779 909.928 438.551 897.999C385.175 870.759 331.475 844.159 277.462 818.206L215.283 787.872C206.665 783.634 198.059 777.963 189.023 774.825C188.716 700.18 188.836 625.534 189.382 550.89L188.949 405.402C199.801 394.198 211.458 383.942 222.959 373.431L258.634 340.393L377.136 230.708L461.342 153.272C473.012 142.428 484.496 131.408 496.334 120.744C501.642 115.963 506.88 110.94 512.599 106.656ZM413.692 669.576C461.739 687.473 498.314 703.526 540.383 733.912C546.504 738.332 553.092 742.592 558.892 747.399C585.216 732.202 611.842 719.445 640.563 709.305C653.192 704.847 666.221 701.563 678.805 697.117C617.762 673.591 555.362 654.518 493.656 632.934L550.088 464.871L567.403 412.978C570.28 404.362 572.66 395.343 576.235 386.995C585.466 389.145 594.564 392.517 603.577 395.466L662.955 415.524L765.166 449.487C779.925 454.509 795.072 459.107 809.604 464.727L759.295 621.265L745.872 662.636C743.09 671.081 739.998 679.52 737.595 688.078C756.887 687.019 775.895 686.458 795.228 687.074C805.515 687.401 815.768 688.399 826.047 688.83C826.091 694.462 826.37 700.197 825.997 705.816C826.025 709.208 826.916 718.915 825.588 721.611C826.608 723.152 826.485 726.866 825.905 728.626C825.844 728.809 825.707 728.957 825.608 729.123C826.378 731.448 826.516 753.011 825.673 755.113C826.872 756.629 826.647 759.462 826.441 761.364C826.325 762.434 826.264 762.527 825.579 763.349C826.505 764.399 826.443 764.629 826.598 766.043C825.069 769.408 796.238 782.222 791.181 784.123C789.907 784.602 788.162 784.746 787.042 785.37C785.853 787.634 780.135 790.416 777.559 791.255C776.887 791.475 776.218 791.529 775.515 791.541C770.773 794.538 765.395 796.867 760.356 799.325L730.599 813.682C724.112 816.889 710.281 824.93 704.526 826.683C700.738 826.17 696.415 830.468 692.471 831.095C693.525 829.838 695.328 828.663 696.11 827.255C696.84 825.94 696.054 824.918 695.535 823.712C694.662 824.443 693.488 825.209 692.834 826.132C687.862 830.228 683.071 834.762 679.057 839.818C673.685 845.238 667.605 847.694 660.676 850.51C657.477 852.884 653.596 854.608 650.04 856.397C651.432 856.179 652.788 855.859 654.192 856.126C654.719 857.26 654.523 856.688 654.801 857.836C655.733 857.751 655.787 857.903 656.498 857.224C657.814 855.968 658.804 855.048 660.501 854.375L660.986 854.891C660.715 856.013 660.446 856.709 659.835 857.692C659.125 858.835 659.038 859.556 658.949 860.884C674.354 853.609 689.412 845.634 704.723 838.157C707.103 836.778 709.731 835.76 712.244 834.645C716.792 831.05 729.575 825.885 735.417 823.273C737.741 821.616 740.738 820.235 743.427 819.31C747.745 817.078 752.101 814.917 756.491 812.829L808.515 787.079C817.197 782.8 826.125 778.904 834.668 774.362C835.501 693.919 835.789 613.471 835.533 533.024L835.316 452.653C835.214 436.774 834.585 420.767 835.194 404.903C827.746 398.206 820.084 391.752 812.724 384.956C801.233 374.344 790.104 363.339 778.625 352.716C768.408 343.261 757.883 334.131 747.698 324.643L687.186 267.435L586.326 174.538C568.613 158.53 551.41 141.965 533.805 125.842C526.822 119.448 520.001 112.532 512.599 106.656C506.88 110.94 501.642 115.963 496.334 120.744C484.496 131.408 473.012 142.428 461.342 153.272L377.136 230.708L258.634 340.393L222.959 373.431C211.458 383.942 199.801 394.198 188.949 405.402L189.382 550.89C188.836 625.534 188.716 700.18 189.023 774.825C198.059 777.963 206.665 783.634 215.283 787.872L277.462 818.206C331.475 844.159 385.175 870.759 438.551 897.999C462.779 909.928 486.886 922.102 510.868 934.52C515.235 932.987 519.393 930.49 523.497 928.356C530.792 924.513 538.13 920.75 545.507 917.066L647.028 866.766C647.646 863.502 645.567 864.556 644.891 861.988C645.334 860.835 645.847 859.91 645.433 858.668C643.937 859.214 643.043 859.825 641.472 859.449C635.037 848.422 626.054 838.32 617.471 828.92C592.097 800.705 563.127 775.945 531.304 755.276C502.549 736.779 471.824 721.541 439.696 709.845C361.319 680.696 280.088 671.645 197.925 689.24C197.944 675.746 197.885 662.252 197.749 648.759C224.669 643.704 252.437 643.781 279.688 644.629C286.869 637.641 293.467 630.012 300.519 622.881L388.628 533.695C386.052 530.829 383.819 527.894 381.641 524.716C356.035 538.683 329.902 551.474 304.072 565.001C284.707 575.143 265.709 585.941 246.49 596.346C230.219 605.155 213.493 613.639 197.661 623.2L197.544 613.681L308.292 550.489C330.069 537.926 352.113 525.508 373.408 512.152L369.697 502.695C311.972 513.833 254.428 525.896 197.089 538.879C197.107 535.994 197.204 533.11 197.38 530.23C206.981 527.691 216.903 526.044 226.569 523.653C257.842 515.937 289.071 508.042 320.253 499.969C335.168 496.151 350.136 492.615 364.967 488.467C365.137 484.805 365.155 481.233 364.96 477.572C349.059 475.72 332.889 475.025 316.927 473.525L197.474 462.247C197.41 459.497 197.473 456.728 197.477 453.977C212.47 454.565 227.551 456.321 242.518 457.462C271.427 459.637 300.375 461.262 329.346 462.334C341.55 462.828 353.797 463.942 366.012 463.86C366.819 460.513 367.659 457.174 368.531 453.844L216.999 390.457C219.147 387.874 221.594 385.458 224.444 383.656C240.276 389.388 255.538 396.376 271.16 402.624C290.847 410.499 310.762 417.663 330.513 425.343C344.57 430.808 358.676 437.239 373.173 441.418C374.836 438.518 376.197 435.418 377.628 432.396C368.568 422.91 357.096 415.067 347.036 406.616C321.387 385.067 295.655 363.181 268.532 343.5C270.743 341.558 272.41 339.229 274.794 337.412C281.019 340.583 287.022 345.984 292.578 350.237L317.032 368.75C339.966 386.152 363.538 402.76 386.079 420.67C388.854 417.935 391.653 415.224 394.473 412.536C378.752 389.29 362.812 366.193 346.654 343.248C336.41 328.786 325.691 314.678 315.369 300.275C317.417 298.345 319.371 296.29 321.357 294.294C330.821 304.343 339.918 318.922 348.528 330.112L405.955 403.948C409.151 402 412.533 400.423 415.97 398.954C413.609 392.129 410.793 385.454 408.417 378.626C400.891 357.001 393.727 335.164 386.526 313.424C381.864 298.88 376.961 284.414 371.82 270.032C369.805 264.376 368.126 258.523 365.625 253.058C367.95 251.065 370.211 248.999 372.405 246.862C375.197 257.578 379.931 268.108 383.701 278.544C394.241 307.535 405.355 336.314 417.035 364.865C420.968 374.73 425.591 384.297 429.247 394.28C432.493 393.765 435.778 393.545 439.051 393.268C439.169 387.029 438.615 380.742 438.438 374.5L436.651 326.318C435.755 301.437 434.442 276.573 432.714 251.736C431.555 232.998 430.566 214.313 428.321 195.658C430.841 193.3 433.506 191.103 436.143 188.877C436.428 207.931 439.05 227.37 440.579 246.39C442.447 269.611 443.713 292.883 445.949 316.077C448.359 341.077 451.707 366.001 454.131 391.019C457.101 391.524 460.112 391.68 463.113 391.897C464.4 386.051 466.452 380.226 468.138 374.47C472.888 358.257 478.189 342.207 482.938 326.012C478.18 324.944 460.491 324.004 458.021 321.225C458.068 321.081 458.095 320.928 458.164 320.792C459.449 318.249 481.872 305.051 485.61 303.21C491.75 271.268 495.612 238.924 500.677 206.809C503.577 189.028 506.269 171.214 508.754 153.371C510.359 142.185 512.457 130.87 512.577 119.548C515.453 119.621 517.828 122.353 519.789 124.321C520.301 124.835 520.168 124.728 520.683 125.478C518.943 133.139 518.295 141.256 517.255 149.061C515.3 164.653 513.179 180.223 510.891 195.77C507.812 215.927 505.163 236.166 501.93 256.296C499.881 269.052 496.488 282.391 495.846 295.283C505.112 291.074 513.737 284.973 522.375 279.591L559.093 256.88C565.826 242.32 572.637 227.797 579.527 213.311C583.058 205.812 586.122 197.68 590.362 190.583C592.291 192.642 594.268 194.511 596.418 196.337C591.85 206.22 587.574 216.2 583.16 226.148C580.365 232.448 577.106 238.782 574.996 245.338C583.139 242.069 591.018 236.425 598.529 231.834C605.807 227.386 613.553 223.118 620.396 218.051C625.631 222.603 630.456 227.47 635.53 232.179L563.601 275.423C551.057 282.871 538.208 289.905 525.767 297.501C521.172 300.308 516.764 303.415 512.182 306.232L649.08 350.066C667.684 355.996 686.127 362.463 704.783 368.223C733.571 377.116 762.273 386.282 790.887 395.718C799.275 398.539 814.017 402.616 821.244 406.119C822.444 407.621 824.675 408.498 826.353 409.397C826.263 414.889 826.074 420.398 826.143 425.89C802.596 418.682 779.506 409.671 756.137 401.864L614.788 355.951L564.325 339.889C554.936 336.939 544.998 333.131 535.316 331.407C506.904 407.59 479.098 483.997 451.9 560.621L425.359 634.814C421.367 646.293 416.798 657.826 413.692 669.576ZM677.227 321.966C668.358 319.584 659.585 316.418 650.853 313.546C638.978 309.64 626.785 305.837 615.271 300.972C632.913 287.746 652.255 276.74 669.315 262.698C670.754 263.978 672.18 265.407 673.766 266.5L682.905 274.964C687.165 279.47 691.893 284.735 696.743 288.564C690.681 299.941 683.277 310.586 677.227 321.966ZM420.584 553.334C403.197 588.713 380.496 621.287 362.267 656.192C367.395 657.199 372.558 658.119 377.62 659.426C384.197 661.051 390.582 663.29 397.135 664.941C401.323 654.582 404.895 643.903 408.646 633.375C417.79 607.712 425.878 583.027 429.15 555.855C426.307 554.972 423.452 554.132 420.584 553.334ZM645.386 552.022C643.196 560.397 640.692 568.687 637.879 576.874C636.487 581.275 635.219 585.766 633.644 590.103C632.405 594.41 631.097 598.696 629.72 602.961C627.027 611.384 623.965 619.842 621.687 628.379C619.259 635.415 616.494 642.575 614.957 649.867L612.616 650.339C609.106 647.198 534.849 624.005 522.001 619.074C526.135 604.042 531.849 589.169 536.791 574.366C542.613 556.928 547.888 539.244 554.327 522.025C556.779 523.402 559.743 524.024 562.431 524.823L569.144 526.884L570.499 527.255C573.026 527.996 575.867 529.161 578.44 529.57C592.962 534.538 607.668 539.508 622.428 543.695L623.32 544.196C626.554 545.33 630.03 546.9 633.36 547.613C637.376 549.061 641.385 550.531 645.386 552.022ZM451.641 407.222C430.473 408.258 411.986 414.4 397.44 430.383C384.957 444.1 378.95 461.548 379.907 479.996C380.881 498.767 389.601 514.768 403.515 527.197C408.748 531.871 414.371 535.063 420.695 538.035C427.238 540.723 433.829 543.223 440.817 544.471C448.53 521.615 456.475 498.837 464.65 476.142C471.882 456.349 479.46 436.586 486.078 416.582C475.621 410.555 463.642 407.616 451.641 407.222ZM582.174 518.769C578.646 517.299 574.867 516.341 571.202 515.263C567.936 513.783 560.822 512.962 558.642 510.121C563.271 493.06 569.507 476.57 575.167 459.838C580.424 444.3 585.152 428.423 590.908 413.085C620.785 422.225 649.874 434.305 679.908 442.855C672.66 465.948 665.46 489.26 659.188 512.633C658.193 515.564 657.566 518.765 656.468 521.62L655.521 524.23C654.478 527.355 653.026 530.701 652.332 533.899L649.85 540.443C643.284 538.663 636.836 536.487 630.371 534.376L627.633 533.376L625.052 532.737C610.983 527.554 596.519 523.127 582.174 518.769ZM492.297 326.867C487.699 342.339 484.615 358.576 481.607 374.429C480.254 381.562 478.555 388.781 477.556 395.959C480.424 397.012 483.32 398.019 486.164 399.135C488.408 395.166 490.695 391.215 492.755 387.146C502.281 368.849 510.185 349.679 517.983 330.588C509.45 329.168 500.911 327.704 492.297 326.867ZM662.179 540.853L662.952 540.411C663.083 536.599 664.951 532.161 666.055 528.479L666.504 526.725L669.841 516.129C677.78 493.465 684.143 470.037 691.081 447.035C709.948 453.106 728.603 459.961 747.401 466.262C757.172 469.538 774.999 474.256 783.457 479.064C781.021 487.373 778.057 495.522 775.347 503.745L760.178 549.776C757.438 557.964 755.278 566.351 752.521 574.523C745.956 572.432 739.327 570.45 732.821 568.183C725.874 565.46 718.474 563.425 711.372 561.098C706.264 559.74 701.254 557.89 696.244 556.208L695.653 555.964C692.296 554.712 688.917 553.518 685.518 552.383C681.648 551.06 677.785 549.657 673.824 548.631C669.973 546.986 665.798 546.627 662.206 544.397C661.367 542.932 661.797 542.452 662.179 540.853ZM305.75 647.427C322.02 648.888 337.975 651.533 354.01 654.633C370.879 618.904 389.03 583.599 407.094 548.455C404.294 546.768 401.512 544.949 398.629 543.413C386.685 555.62 373.696 566.802 361.155 578.383C337.091 600.533 313.172 622.84 289.4 645.303C294.833 646.185 300.313 646.621 305.75 647.427ZM716.435 696.363L717.989 696.906L720.576 697.415L721.657 697.627C723.086 695.741 723.587 693.239 724.269 690.998C725.257 689.073 725.763 686.819 726.385 684.749L726.522 683.93C738.539 651.993 748.281 618.882 758.74 586.408C761.143 578.947 764 571.644 766.43 564.196C776.272 533.402 786.414 502.706 796.857 472.111C756.491 458.129 716.034 444.414 675.487 430.968L617.504 411.385C606.179 407.559 594.788 403.221 583.271 400.056C566.882 447.251 550.894 494.584 535.308 542.05L516.756 597.496C513.623 607.02 510.177 616.555 507.579 626.238C542.198 638.199 576.818 650.663 611.894 661.219C613.925 662.115 615.889 662.759 618.039 663.308C639.558 671.014 661.318 678.502 683.138 685.304C685.414 686.161 687.71 686.965 690.022 687.716C693.946 689.052 697.959 690.705 701.971 691.704C706.778 693.301 711.6 694.854 716.435 696.363ZM610.972 643.328C618.379 624.056 624.188 603.99 630.161 584.232C633.113 574.468 636.491 564.826 639.317 555.026C612.196 545.788 584.914 537.028 557.484 528.749C549.935 547.843 543.993 567.919 537.994 587.553C535.084 597.08 531.808 606.53 529.014 616.085C539.956 620.131 551.146 623.568 562.172 627.387C578.308 632.975 594.464 638.927 610.972 643.328ZM648.152 441.309C639.554 441.858 630.935 443.553 622.436 444.941C609.247 447.096 596.021 449.093 583.181 452.874C579.786 462.836 576.486 472.927 573.58 483.042L574.983 483.464C582.891 482.294 639.609 447.544 648.152 441.309ZM679.372 544.944C698.719 537.232 737.69 509.947 754.285 495.868C742.833 499.353 731.732 504.312 720.781 509.1C703.59 516.458 686.691 524.482 670.123 533.152L667.953 541.094C671.747 542.38 675.538 543.789 679.372 544.944Z"/><path fill="#0C4A58" d="M669.315 262.698C670.754 263.978 672.18 265.407 673.766 266.5L682.905 274.964C687.165 279.47 691.893 284.735 696.743 288.564C690.681 299.941 683.277 310.586 677.227 321.966C668.358 319.584 659.585 316.418 650.853 313.546C638.978 309.64 626.785 305.837 615.271 300.972C632.913 287.746 652.255 276.74 669.315 262.698Z"/><path fill="#BBD786" fill-opacity="0.98823529" d="M692.834 826.132C692.231 828.626 690.344 829.019 689.36 831.231L689.977 831.885C691.396 831.919 691.411 832.015 692.471 831.095C696.415 830.468 700.738 826.17 704.526 826.683C699.908 828.925 695.343 831.276 690.836 833.733C687.07 835.794 683.133 838.472 679.057 839.818C683.071 834.762 687.862 830.228 692.834 826.132Z"/><path fill="#6B9446" fill-opacity="0.88627452" d="M673.766 266.5C673.735 265.542 673.412 263.587 673.76 262.757C677.107 265.289 682.486 269.574 683.332 273.729L682.905 274.964L673.766 266.5Z"/><path fill="#BBD786" fill-opacity="0.92941177" d="M692.834 826.132C693.488 825.209 694.662 824.443 695.535 823.712C696.054 824.918 696.84 825.94 696.11 827.255C695.328 828.663 693.525 829.838 692.471 831.095C691.411 832.015 691.396 831.919 689.977 831.885L689.36 831.231C690.344 829.019 692.231 828.626 692.834 826.132Z"/><path fill="#638A42" d="M512.599 106.656C520.001 112.532 526.822 119.448 533.805 125.842C551.41 141.965 568.613 158.53 586.326 174.538L687.186 267.435L747.698 324.643C757.883 334.131 768.408 343.261 778.625 352.716C790.104 363.339 801.233 374.344 812.724 384.956C820.084 391.752 827.746 398.206 835.194 404.903C834.585 420.767 835.214 436.774 835.316 452.653L835.533 533.024C835.789 613.471 835.501 693.919 834.668 774.362C826.125 778.904 817.197 782.8 808.515 787.079L756.491 812.829C752.101 814.917 747.745 817.078 743.427 819.31C740.738 820.235 737.741 821.616 735.417 823.273C729.575 825.885 716.792 831.05 712.244 834.645C709.731 835.76 707.103 836.778 704.723 838.157C689.412 845.634 674.354 853.609 658.949 860.884C659.038 859.556 659.125 858.835 659.835 857.692C660.446 856.709 660.715 856.013 660.986 854.891L660.501 854.375C658.804 855.048 657.814 855.968 656.498 857.224C655.787 857.903 655.733 857.751 654.801 857.836C654.523 856.688 654.719 857.26 654.192 856.126C652.788 855.859 651.432 856.179 650.04 856.397C653.596 854.608 657.477 852.884 660.676 850.51C667.605 847.694 673.685 845.238 679.057 839.818C683.133 838.472 687.07 835.794 690.836 833.733C695.343 831.276 699.908 828.925 704.526 826.683C710.281 824.93 724.112 816.889 730.599 813.682L760.356 799.325C765.395 796.867 770.773 794.538 775.515 791.541C776.218 791.529 776.887 791.475 777.559 791.255C780.135 790.416 785.853 787.634 787.042 785.37C788.162 784.746 789.907 784.602 791.181 784.123C796.238 782.222 825.069 769.408 826.598 766.043C826.443 764.629 826.505 764.399 825.579 763.349C826.264 762.527 826.325 762.434 826.441 761.364C826.647 759.462 826.872 756.629 825.673 755.113C826.516 753.011 826.378 731.448 825.608 729.123C825.707 728.957 825.844 728.809 825.905 728.626C826.485 726.866 826.608 723.152 825.588 721.611C826.916 718.915 826.025 709.208 825.997 705.816C826.37 700.197 826.091 694.462 826.047 688.83C826.823 673.862 826.134 658.495 826.171 643.475L826.069 538.302C826.037 513.993 826.142 489.683 826.383 465.374C826.453 452.366 827.267 438.817 826.143 425.89C826.074 420.398 826.263 414.889 826.353 409.397C824.675 408.498 822.444 407.621 821.244 406.119C819.48 402.98 781.148 366.554 775.019 361.134C772.149 358.596 769.297 356.243 766.005 354.27C760.133 352.096 754.19 350.147 748.497 347.519C747.973 343.448 747.125 339.411 746.363 335.379C745.695 332.519 738.418 327.067 736.017 324.893L735.99 343.001C720.324 337.296 703.484 332.073 688.229 326.002C693.135 315.862 699.666 305.95 705.462 296.28L696.743 288.564C691.893 284.735 687.165 279.47 682.905 274.964L683.332 273.729C682.486 269.574 677.107 265.289 673.76 262.757C673.412 263.587 673.735 265.542 673.766 266.5C672.18 265.407 670.754 263.978 669.315 262.698C658.08 252.589 647.301 241.633 635.53 232.179C630.456 227.47 625.631 222.603 620.396 218.051C612.012 211.452 604.562 203.319 596.418 196.337C594.268 194.511 592.291 192.642 590.362 190.583C585.91 184.4 578.383 179.056 572.798 173.835C555.517 157.684 537.529 142.058 520.683 125.478C520.168 124.728 520.301 124.835 519.789 124.321C517.828 122.353 515.453 119.621 512.577 119.548C507.368 121.686 439.341 184.166 436.143 188.877C433.506 191.103 430.841 193.3 428.321 195.658C416.865 205.651 405.624 215.886 394.604 226.356C387.283 233.268 380.12 240.383 372.405 246.862C370.211 248.999 367.95 251.065 365.625 253.058C354.976 263.903 343.032 273.824 331.834 284.14C328.698 287.028 323.489 290.751 321.357 294.294C319.371 296.29 317.417 298.345 315.369 300.275C308.388 307.236 300.68 313.469 293.429 320.147C287.248 325.84 281.392 332.226 274.794 337.412C272.41 339.229 270.743 341.558 268.532 343.5C259.958 349.874 252.269 357.956 244.453 365.236C237.841 371.395 230.765 377.21 224.444 383.656C221.594 385.458 219.147 387.874 216.999 390.457C211.832 397.045 203.822 402.795 197.494 408.259C197.626 423.498 197.621 438.738 197.477 453.977C197.473 456.728 197.41 459.497 197.474 462.247C197.618 484.908 197.587 507.57 197.38 530.23C197.204 533.11 197.107 535.994 197.089 538.879C196.817 549.593 197.414 560.393 197.449 571.121C197.497 585.266 197.049 599.554 197.544 613.681L197.661 623.2C197.369 631.464 196.999 640.539 197.749 648.759C197.885 662.252 197.944 675.746 197.925 689.24C280.088 671.645 361.319 680.696 439.696 709.845C471.824 721.541 502.549 736.779 531.304 755.276C563.127 775.945 592.097 800.705 617.471 828.92C626.054 838.32 635.037 848.422 641.472 859.449C643.043 859.825 643.937 859.214 645.433 858.668C645.847 859.91 645.334 860.835 644.891 861.988C645.567 864.556 647.646 863.502 647.028 866.766L545.507 917.066C538.13 920.75 530.792 924.513 523.497 928.356C519.393 930.49 515.235 932.987 510.868 934.52C486.886 922.102 462.779 909.928 438.551 897.999C385.175 870.759 331.475 844.159 277.462 818.206L215.283 787.872C206.665 783.634 198.059 777.963 189.023 774.825C188.716 700.18 188.836 625.534 189.382 550.89L188.949 405.402C199.801 394.198 211.458 383.942 222.959 373.431L258.634 340.393L377.136 230.708L461.342 153.272C473.012 142.428 484.496 131.408 496.334 120.744C501.642 115.963 506.88 110.94 512.599 106.656ZM717.985 308.225L721.491 308.836C725.073 311.253 727.671 314.943 731.393 317.268C730.502 313.804 724.478 309.119 721.831 306.599C721.798 306.398 721.813 306.183 721.731 305.996C720.741 303.757 718.198 301.386 715.797 300.933C714.002 300.594 712.788 301.104 711.364 302.133C713.544 304.189 715.689 306.299 717.985 308.225ZM629.595 222.696C628.118 220.822 626.648 218.156 624.154 217.733C624.745 219.456 625.259 220.91 627.005 221.774C627.819 222.177 628.713 222.488 629.595 222.696Z"/><path fill="#6B9446" fill-opacity="0.87058824" d="M711.364 302.133C712.788 301.104 714.002 300.594 715.797 300.933C718.198 301.386 720.741 303.757 721.731 305.996C721.813 306.183 721.798 306.398 721.831 306.599L721.491 308.836L717.985 308.225C715.689 306.299 713.544 304.189 711.364 302.133Z"/><path fill="#6B9446" fill-opacity="0.58039218" d="M721.831 306.599C724.478 309.119 730.502 313.804 731.393 317.268C727.671 314.943 725.073 311.253 721.491 308.836L721.831 306.599Z"/><path fill="#BBD786" d="M197.925 689.24C280.088 671.645 361.319 680.696 439.696 709.845C471.824 721.541 502.549 736.779 531.304 755.276C563.127 775.945 592.097 800.705 617.471 828.92C626.054 838.32 635.037 848.422 641.472 859.449C631.079 864.312 620.758 869.182 610.828 874.966C609.684 877.37 601.283 879.275 598.64 880.902C577.232 856.786 552.644 836.004 526.574 817.14C451.835 763.061 356.17 734.251 264.122 735.08C241.753 735.281 219.771 737.528 197.71 741.059C197.306 738.189 196.737 731.195 197.969 728.777C197.589 715.641 197.928 702.39 197.925 689.24Z"/><path fill="#0C4A58" d="M197.969 728.777C314.769 709.047 434.631 736.359 531.353 804.743C553.867 821.041 575.156 838.968 595.049 858.379C600.515 863.693 605.304 869.743 610.828 874.966C609.684 877.37 601.283 879.275 598.64 880.902C577.232 856.786 552.644 836.004 526.574 817.14C451.835 763.061 356.17 734.251 264.122 735.08C241.753 735.281 219.771 737.528 197.71 741.059C197.306 738.189 196.737 731.195 197.969 728.777Z"/><path fill="#BBD786" d="M197.71 741.059C219.771 737.528 241.753 735.281 264.122 735.08C356.17 734.251 451.835 763.061 526.574 817.14C552.644 836.004 577.232 856.786 598.64 880.902C586.673 886.24 574.831 891.854 563.123 897.74C557.955 900.279 552.272 903.958 546.875 905.661C543.039 907.534 539.159 909.35 535.399 911.371C534.845 910.769 534.286 910.171 533.724 909.576C473.057 846.386 395.416 802.082 310.151 781.999C275.392 774.017 240.933 770.801 205.362 769.828C202.945 769.513 200.437 769.563 198 769.494C197.887 767.305 197.971 765.087 197.984 762.895C197.395 755.735 197.764 748.257 197.71 741.059Z"/><path fill="#0C4A58" d="M197.984 762.895C290.706 760.838 382.043 785.649 460.981 834.335C484.034 848.348 505.533 864.771 525.116 883.327C532.613 890.543 539.603 898.228 546.875 905.661C543.039 907.534 539.159 909.35 535.399 911.371C534.845 910.769 534.286 910.171 533.724 909.576C473.057 846.386 395.416 802.082 310.151 781.999C275.392 774.017 240.933 770.801 205.362 769.828C202.945 769.513 200.437 769.563 198 769.494C197.887 767.305 197.971 765.087 197.984 762.895Z"/><path fill="#BBD786" d="M205.362 769.828C240.933 770.801 275.392 774.017 310.151 781.999C395.416 802.082 473.057 846.386 533.724 909.576C534.286 910.171 534.845 910.769 535.399 911.371C529.324 915.446 517.69 919.996 510.722 923.496C504.408 919.694 497.561 916.562 490.978 913.245C476.621 906.012 462.131 899.049 447.83 891.707C389.611 862.12 331.201 832.911 272.604 804.08L216.595 776.816C212.617 774.845 207.161 773.557 203.651 771.046C202.919 770.522 203.081 770.829 202.975 770.11L205.362 769.828Z"/><path fill="#0C4A58" d="M705.462 296.28C707.298 298.457 709.22 300.273 711.364 302.133C713.544 304.189 715.689 306.299 717.985 308.225C723.973 313.795 729.913 319.45 736.017 324.893L735.99 343.001C720.324 337.296 703.484 332.073 688.229 326.002C693.135 315.862 699.666 305.95 705.462 296.28Z"/><path fill="#0C4A58" d="M746.363 335.379C752.474 340.629 761.662 347.662 766.005 354.27C760.133 352.096 754.19 350.147 748.497 347.519C747.973 343.448 747.125 339.411 746.363 335.379Z"/><path fill="#638A42" fill-opacity="0.05882353" d="M624.154 217.733C626.648 218.156 628.118 220.822 629.595 222.696C628.713 222.488 627.819 222.177 627.005 221.774C625.259 220.91 624.745 219.456 624.154 217.733Z"/><path fill="#BBD786" d="M571.812 756.405C586.038 747.757 601.168 741.449 616.576 735.268C633.355 728.537 650.349 721.747 667.795 716.931C711.22 704.943 781.653 698.068 825.997 705.816C826.025 709.208 826.916 718.915 825.588 721.611L817.642 721.28C796.402 720.475 775.748 722.364 754.92 726.561C700.907 737.446 658.79 762.771 618.674 799.965C612.942 794.013 607.291 787.984 601.722 781.88C654.112 745.221 687.139 725.269 749.95 710.443L749.65 709.476C688.978 718.574 644.074 740.065 594.6 775.912C587.174 769.214 579.575 762.71 571.812 756.405Z"/><path fill="#638A42" d="M749.65 709.476C752.735 708.898 755.616 708.359 758.769 708.759L749.95 710.443L749.65 709.476Z"/><path fill="#BBD786" d="M625.206 806.442C629.537 802.316 633.95 798.277 638.444 794.328C689.485 748.242 756.979 724.728 825.608 729.123C826.378 731.448 826.516 753.011 825.673 755.113C811.364 754.028 796.733 753.981 782.453 755.476C772.741 756.494 763.316 758.702 753.875 761.12C712.795 771.64 669.487 792.957 642.409 826.454C637.107 819.415 631.149 812.936 625.206 806.442Z"/><path fill="#BBD786" d="M647.742 833.119C661.374 816.366 679.566 802.654 697.756 791.224C729.071 771.547 789.168 755.03 825.579 763.349C826.505 764.399 826.443 764.629 826.598 766.043C825.069 769.408 796.238 782.222 791.181 784.123C789.907 784.602 788.162 784.746 787.042 785.37C785.853 787.634 780.135 790.416 777.559 791.255C776.887 791.475 776.218 791.529 775.515 791.541C770.773 794.538 765.395 796.867 760.356 799.325L730.599 813.682C724.112 816.889 710.281 824.93 704.526 826.683C700.738 826.17 696.415 830.468 692.471 831.095C693.525 829.838 695.328 828.663 696.11 827.255C696.84 825.94 696.054 824.918 695.535 823.712C694.662 824.443 693.488 825.209 692.834 826.132C687.862 830.228 683.071 834.762 679.057 839.818C673.685 845.238 667.605 847.694 660.676 850.51C655.87 845.691 651.798 838.67 647.742 833.119Z"/><path fill="#BBD786" d="M695.535 823.712C715.704 807.471 749.292 790.989 775.515 791.541C770.773 794.538 765.395 796.867 760.356 799.325L730.599 813.682C724.112 816.889 710.281 824.93 704.526 826.683C700.738 826.17 696.415 830.468 692.471 831.095C693.525 829.838 695.328 828.663 696.11 827.255C696.84 825.94 696.054 824.918 695.535 823.712Z"/><path fill="#0C4A58" d="M787.042 785.37C785.853 787.634 780.135 790.416 777.559 791.255C776.887 791.475 776.218 791.529 775.515 791.541C749.292 790.989 715.704 807.471 695.535 823.712C694.662 824.443 693.488 825.209 692.834 826.132C687.862 830.228 683.071 834.762 679.057 839.818C673.685 845.238 667.605 847.694 660.676 850.51C661.933 848.76 663.232 847.041 664.573 845.355C687.577 816.832 722.989 797.274 758.526 789.393C767.942 787.304 777.469 786.382 787.042 785.37Z"/><path fill="#0C4A58" d="M554.327 522.025C556.779 523.402 559.743 524.024 562.431 524.823L569.144 526.884L570.499 527.255C573.026 527.996 575.867 529.161 578.44 529.57C592.962 534.538 607.668 539.508 622.428 543.695L623.32 544.196C626.554 545.33 630.03 546.9 633.36 547.613C637.376 549.061 641.385 550.531 645.386 552.022C643.196 560.397 640.692 568.687 637.879 576.874C636.487 581.275 635.219 585.766 633.644 590.103C632.405 594.41 631.097 598.696 629.72 602.961C627.027 611.384 623.965 619.842 621.687 628.379C619.259 635.415 616.494 642.575 614.957 649.867L612.616 650.339C609.106 647.198 534.849 624.005 522.001 619.074C526.135 604.042 531.849 589.169 536.791 574.366C542.613 556.928 547.888 539.244 554.327 522.025ZM529.014 616.085C539.956 620.131 551.146 623.568 562.172 627.387C578.308 632.975 594.464 638.927 610.972 643.328C618.379 624.056 624.188 603.99 630.161 584.232C633.113 574.468 636.491 564.826 639.317 555.026C612.196 545.788 584.914 537.028 557.484 528.749C549.935 547.843 543.993 567.919 537.994 587.553C535.084 597.08 531.808 606.53 529.014 616.085Z"/><path fill="#64B9C4" d="M557.484 528.749C584.914 537.028 612.196 545.788 639.317 555.026C636.491 564.826 633.113 574.468 630.161 584.232C624.188 603.99 618.379 624.056 610.972 643.328C594.464 638.927 578.308 632.975 562.172 627.387C551.146 623.568 539.956 620.131 529.014 616.085C531.808 606.53 535.084 597.08 537.994 587.553C543.993 567.919 549.935 547.843 557.484 528.749ZM539.884 591.13C537.904 596.892 535.259 603.03 534.136 609.01C535.208 610.217 537.23 610.307 538.81 610.583C542.375 611.749 545.937 612.95 549.527 614.036C567.358 603.255 584.762 591.454 602.046 579.813C609.16 575.021 616.21 569.092 623.735 565.064L623.703 564.619L623.254 564.518L567.041 582.584C558.045 585.431 548.684 587.779 539.884 591.13Z"/><path fill="#FEFEFD" fill-opacity="0.81960785" d="M623.254 564.518L623.703 564.619L623.735 565.064C616.21 569.092 609.16 575.021 602.046 579.813C584.762 591.454 567.358 603.255 549.527 614.036C545.937 612.95 542.375 611.749 538.81 610.583C537.23 610.307 535.208 610.217 534.136 609.01C535.259 603.03 537.904 596.892 539.884 591.13C548.684 587.779 558.045 585.431 567.041 582.584L623.254 564.518Z"/><path fill="#0C4A58" d="M657.191 556.087C663.458 557.931 669.672 559.954 675.946 561.785L676.487 562.363L679.426 562.947C682.941 564.088 686.93 565.007 690.234 566.624L691.956 566.971L696.549 568.418L701.958 570.261L706.849 571.776C710.683 573.111 714.707 574.762 718.7 575.541L718.863 575.565C721.199 576.534 724.391 578.018 726.907 578.305C734.065 580.69 741.205 582.936 748.515 584.809C742.469 598.845 738.531 614.165 733.691 628.691C728.888 643.103 722.955 657.668 719.23 672.37L718.774 673.336L715.269 683.747L714.792 683.923C707.863 681.912 700.997 679.489 694.133 677.255L690.526 676.142L688.573 675.643C675.793 671.403 662.994 667.146 650.287 662.693C643.515 660.319 636.142 656.671 629.112 655.435C627.646 654.793 627.225 654.556 626.641 653.111C628.555 645.858 631.015 638.683 633.136 631.479C636.403 623.185 638.8 613.929 641.22 605.337C642.021 603.79 642.383 601.894 642.847 600.21L644.572 594.433C645.785 590.555 647.018 586.683 648.271 582.819L649.107 579.965L650.131 577.44C651.333 572.607 653.301 567.718 654.771 562.939L657.191 556.087ZM681.19 657.169C682.772 656.085 684.196 654.667 685.639 653.4C692.352 647.331 699.149 641.22 705.428 634.704C710.205 630.459 715.41 625.57 719.305 620.517C719.617 618.855 719.093 618.279 718.402 616.769C716.341 616.157 713.331 618.196 711.468 619.194C708.647 620.431 705.774 621.59 703.136 623.192C693.423 627.496 684.09 632.815 674.816 637.981L669.829 640.696C668.797 641.184 667.761 641.662 666.747 642.185C662.474 644.469 651.91 648.548 650.516 653.441C650.22 654.482 650.391 654.702 650.633 655.704L652.835 657.885L667.52 662.741L672.506 664.563C674.274 663.743 675.593 662.449 677.027 661.162L681.19 657.169Z"/><path fill="#64B9C4" d="M660.096 561.975C676.433 567.085 692.613 572.68 708.893 577.968C719.671 581.47 730.957 584.497 741.436 588.753C738.938 597.355 735.659 605.758 732.769 614.236C725.628 635.187 718.301 656.171 711.634 677.272C704.179 675.109 677.572 668.046 672.506 664.563C674.274 663.743 675.593 662.449 677.027 661.162L681.19 657.169C682.772 656.085 684.196 654.667 685.639 653.4C692.352 647.331 699.149 641.22 705.428 634.704C710.205 630.459 715.41 625.57 719.305 620.517C719.617 618.855 719.093 618.279 718.402 616.769C716.341 616.157 713.331 618.196 711.468 619.194C708.647 620.431 705.774 621.59 703.136 623.192C693.423 627.496 684.09 632.815 674.816 637.981L669.829 640.696C668.797 641.184 667.761 641.662 666.747 642.185C662.474 644.469 651.91 648.548 650.516 653.441C650.22 654.482 650.391 654.702 650.633 655.704L652.835 657.885C645.951 655.65 639.085 653.241 632.137 651.22C642.076 621.71 651.103 591.788 660.096 561.975Z"/><path fill="#FEFEFD" fill-opacity="0.36470589" d="M711.468 619.194C713.331 618.196 716.341 616.157 718.402 616.769C719.093 618.279 719.617 618.855 719.305 620.517C715.41 625.57 710.205 630.459 705.428 634.704C704.19 634.869 703.376 635.144 702.265 635.713C701.77 634.954 701.567 634.295 701.336 633.423C699.366 633.796 697.024 635.554 695.831 637.15C694.834 638.485 694.167 640.094 693.548 641.629L693.067 641.63L693.043 639.77L692.341 639.836L691.811 640.667L692.348 642.752C691.462 643.97 690.732 644.962 689.476 645.842L689.187 645.558L689.313 644.332C687.169 646.676 686.41 649.618 683.957 651.745L684.184 649.065L683.681 648.68C682.102 649.789 680.525 652.583 680.284 654.517C680.123 655.811 680.5 656.164 681.19 657.169L677.027 661.162C674.904 660.549 671.71 660.179 669.676 661.238C668.906 661.639 668.2 662.204 667.52 662.741L652.835 657.885L650.633 655.704C650.391 654.702 650.22 654.482 650.516 653.441C651.91 648.548 662.474 644.469 666.747 642.185C667.042 642.281 667.35 642.345 667.634 642.472C668.749 642.972 668.874 643.467 669.279 644.538L669.606 645.429C676.109 645.622 687.219 640.388 692.093 636.262C697.468 633.384 701.239 629.053 704.42 623.932L705.382 623.932L705.447 625.558C706.349 625.898 706.799 625.825 707.733 625.625C708.201 624.456 707.768 623.852 707.428 622.682L707.776 622.172C708.232 621.987 708.692 621.81 709.141 621.608C710.588 620.959 710.911 620.607 711.468 619.194Z"/><path fill="#FEFEFD" fill-opacity="0.24705882" d="M711.468 619.194C710.911 620.607 710.588 620.959 709.141 621.608C708.692 621.81 708.232 621.987 707.776 622.172L707.428 622.682C707.768 623.852 708.201 624.456 707.733 625.625C706.799 625.825 706.349 625.898 705.447 625.558L705.382 623.932L704.42 623.932C701.239 629.053 697.468 633.384 692.093 636.262C688.348 637.557 682.042 640.793 678.465 641.049C675.794 641.24 673.833 640.223 670.923 640.722C670.587 640.78 670.171 640.727 669.829 640.696L674.816 637.981C675.217 638.248 675.614 638.521 676.02 638.78C677.3 639.597 677.496 639.435 678.881 639.122C680.246 637.525 681.033 636.47 683.243 636.244C685.185 636.045 686.993 635.737 688.823 635.015C693.696 633.093 701.037 628.143 703.136 623.192C705.774 621.59 708.647 620.431 711.468 619.194Z"/><path fill="#FEFEFD" fill-opacity="0.20784314" d="M683.957 651.745C686.41 649.618 687.169 646.676 689.313 644.332L689.187 645.558L689.476 645.842C690.732 644.962 691.462 643.97 692.348 642.752L691.811 640.667L692.341 639.836L693.043 639.77L693.067 641.63L693.548 641.629C694.167 640.094 694.834 638.485 695.831 637.15C697.024 635.554 699.366 633.796 701.336 633.423C701.567 634.295 701.77 634.954 702.265 635.713C703.376 635.144 704.19 634.869 705.428 634.704C699.149 641.22 692.352 647.331 685.639 653.4C685.022 652.954 684.481 652.289 683.957 651.745Z"/><path fill="#FEFEFD" fill-opacity="0.10980392" d="M674.816 637.981C684.09 632.815 693.423 627.496 703.136 623.192C701.037 628.143 693.696 633.093 688.823 635.015C686.993 635.737 685.185 636.045 683.243 636.244C681.033 636.47 680.246 637.525 678.881 639.122C677.496 639.435 677.3 639.597 676.02 638.78C675.614 638.521 675.217 638.248 674.816 637.981Z"/><path fill="#FEFEFD" fill-opacity="0.28235295" d="M692.093 636.262C687.219 640.388 676.109 645.622 669.606 645.429L669.279 644.538C668.874 643.467 668.749 642.972 667.634 642.472C667.35 642.345 667.042 642.281 666.747 642.185C667.761 641.662 668.797 641.184 669.829 640.696C670.171 640.727 670.587 640.78 670.923 640.722C673.833 640.223 675.794 641.24 678.465 641.049C682.042 640.793 688.348 637.557 692.093 636.262Z"/><path fill="#FEFEFD" fill-opacity="0.3764706" d="M681.19 657.169C680.5 656.164 680.123 655.811 680.284 654.517C680.525 652.583 682.102 649.789 683.681 648.68L684.184 649.065L683.957 651.745C684.481 652.289 685.022 652.954 685.639 653.4C684.196 654.667 682.772 656.085 681.19 657.169Z"/><path fill="#FEFEFD" fill-opacity="0.21960784" d="M667.52 662.741C668.2 662.204 668.906 661.639 669.676 661.238C671.71 660.179 674.904 660.549 677.027 661.162C675.593 662.449 674.274 663.743 672.506 664.563L667.52 662.741Z"/><path fill="#0C4A58" d="M691.081 447.035C709.948 453.106 728.603 459.961 747.401 466.262C757.172 469.538 774.999 474.256 783.457 479.064C781.021 487.373 778.057 495.522 775.347 503.745L760.178 549.776C757.438 557.964 755.278 566.351 752.521 574.523C745.956 572.432 739.327 570.45 732.821 568.183C725.874 565.46 718.474 563.425 711.372 561.098C706.264 559.74 701.254 557.89 696.244 556.208L695.653 555.964C692.296 554.712 688.917 553.518 685.518 552.383C681.648 551.06 677.785 549.657 673.824 548.631C669.973 546.986 665.798 546.627 662.206 544.397C661.367 542.932 661.797 542.452 662.179 540.853L662.952 540.411C663.083 536.599 664.951 532.161 666.055 528.479L666.504 526.725L669.841 516.129C677.78 493.465 684.143 470.037 691.081 447.035ZM670.123 533.152L667.953 541.094C671.747 542.38 675.538 543.789 679.372 544.944C698.719 537.232 737.69 509.947 754.285 495.868C742.833 499.353 731.732 504.312 720.781 509.1C703.59 516.458 686.691 524.482 670.123 533.152Z"/><path fill="#64B9C4" d="M694.804 453.801C721.846 464.3 749.955 472.109 777.252 481.921L757.632 541.255C754.722 550.176 751.552 559.044 749.082 568.097L700.82 552.35C693.84 550.035 685.993 548.085 679.372 544.944C698.719 537.232 737.69 509.947 754.285 495.868C742.833 499.353 731.732 504.312 720.781 509.1C703.59 516.458 686.691 524.482 670.123 533.152C675.29 517.319 680.175 501.395 684.779 485.388C687.842 474.897 690.651 463.906 694.804 453.801Z"/><path fill="#FEFEFD" fill-opacity="0.90588236" d="M754.285 495.868C737.69 509.947 698.719 537.232 679.372 544.944C675.538 543.789 671.747 542.38 667.953 541.094L670.123 533.152C686.691 524.482 703.59 516.458 720.781 509.1C731.732 504.312 742.833 499.353 754.285 495.868Z"/><path fill="#0C4A58" d="M590.908 413.085C620.785 422.225 649.874 434.305 679.908 442.855C672.66 465.948 665.46 489.26 659.188 512.633C658.193 515.564 657.566 518.765 656.468 521.62L655.521 524.23C654.478 527.355 653.026 530.701 652.332 533.899L649.85 540.443C643.284 538.663 636.836 536.487 630.371 534.376L627.633 533.376L625.052 532.737C610.983 527.554 596.519 523.127 582.174 518.769C578.646 517.299 574.867 516.341 571.202 515.263C567.936 513.783 560.822 512.962 558.642 510.121C563.271 493.06 569.507 476.57 575.167 459.838C580.424 444.3 585.152 428.423 590.908 413.085ZM583.181 452.874C579.786 462.836 576.486 472.927 573.58 483.042L574.983 483.464C582.891 482.294 639.609 447.544 648.152 441.309C639.554 441.858 630.935 443.553 622.436 444.941C609.247 447.096 596.021 449.093 583.181 452.874Z"/><path fill="#64B9C4" d="M593.451 419.575C619.792 429 646.706 436.856 672.984 446.471C665.371 475.976 655.352 504.949 646.785 534.194C619.954 525.398 592.093 515.348 564.87 508.203C566.958 502.934 568.864 497.595 570.587 492.196C571.556 489.24 572.331 485.879 573.58 483.042L574.983 483.464C582.891 482.294 639.609 447.544 648.152 441.309C639.554 441.858 630.935 443.553 622.436 444.941C609.247 447.096 596.021 449.093 583.181 452.874C585.496 441.811 590.405 430.606 593.451 419.575Z"/><path fill="#0C4A58" d="M450.457 426.198L459.309 425.997C442.434 431.374 428.659 438.02 417.699 452.472C408.86 464.127 403.613 480.366 405.648 494.972C405.949 496.403 406.121 497.669 406.124 499.133C403.751 496.569 401.642 485.029 401.245 481.158C399.96 468.612 403.365 454.679 411.526 444.867C420.949 433.539 436.083 427.469 450.457 426.198Z"/><defs><linearGradient id="gradient_0" gradientUnits="userSpaceOnUse" x1="651.84961" y1="582.10431" x2="662.7132" y2="544.13611"><stop offset="0" stop-color="#FCFCFC" stop-opacity="0.60000002"/><stop offset="1" stop-color="#FBFCFC" stop-opacity="0.90588236"/></linearGradient></defs><path fill="url(#gradient_0)" d="M652.332 533.899C652.603 535.937 652.455 539.837 654.25 541.171C655.811 542.33 657.651 542.15 659.477 541.956C659.27 542.92 659.375 543.466 658.612 544.125C657.4 545.174 656.562 545.785 656.201 547.428C656.56 548.424 656.24 548.083 657.283 548.551C658.985 549.315 664.677 550.929 666.388 550.366C667.161 550.112 668.506 549.085 669.219 549.06C670.769 549.004 672.304 548.964 673.824 548.631C677.785 549.657 681.648 551.06 685.518 552.383C684.349 554.514 681.174 555.163 679.143 556.643C678.429 558.675 677.881 560.682 676.487 562.363L675.946 561.785C675.108 560.472 674.379 559.644 672.815 559.231C670.863 558.716 668.163 558.923 666.419 557.823C665.12 557.005 664.538 555.45 663.501 554.378C661.927 552.751 653.903 553.883 651.597 554.53C652.883 555.865 654.454 556.786 654.488 558.766C654.503 559.63 654.26 560.621 654.119 561.477L654.771 562.939C653.301 567.718 651.333 572.607 650.131 577.44C649.394 576.09 649.381 575.74 647.935 575.088C646.762 575.631 647.007 575.601 646.55 576.697C646.725 577.938 646.88 578.453 647.714 579.398L649.107 579.965L648.271 582.819C647.261 582.188 646.721 581.723 646.04 580.73C645.544 580.008 645.486 579.84 644.704 579.38L644.747 580.426C644.578 580.602 644.413 580.782 644.239 580.954C642.988 582.192 642.463 582.616 640.741 582.624C638.945 581.398 638.483 578.866 637.879 576.874C640.692 568.687 643.196 560.397 645.386 552.022C641.385 550.531 637.376 549.061 633.36 547.613C635.954 547.015 638.383 547.858 640.45 545.924C640.698 543.712 639.308 541.191 638.499 539.15C636.376 539.079 634.332 539.164 632.349 538.315C630.978 537.116 630.778 536.116 630.371 534.376C636.836 536.487 643.284 538.663 649.85 540.443L652.332 533.899Z"/><path fill="#FEFEFD" fill-opacity="0.27843139" d="M629.72 602.961C629.95 604.53 630.164 606.048 630.186 607.635L632.574 606.327C633.311 606.963 633.883 607.622 634.488 608.383L634.847 608.22C634.927 607.922 635.002 607.622 635.089 607.326C635.532 605.828 636.447 604.942 637.829 604.263C638.102 604.129 638.381 604.005 638.656 603.876C639.118 610.173 633.051 624.171 631.248 631.117C628.758 633.271 628.42 635.201 626.606 637.624C625.116 639.615 622.523 640.825 622.211 643.585C621.852 646.755 625.447 649.753 625.764 653.125C625.692 653.059 625.612 653.001 625.548 652.928C624.461 651.683 623.773 650.956 622.362 650.067C621.131 649.884 620.417 649.846 619.217 650.215C618.367 650.477 617.618 650.666 616.73 650.762L615.765 650.859C616.803 649.858 617.816 648.871 618.583 647.639C620.519 644.528 620.482 642.594 619.65 639.094C619.341 637.796 620.651 635.179 621.159 633.832C621.946 631.744 622.033 630.612 621.687 628.379C623.965 619.842 627.027 611.384 629.72 602.961Z"/><path fill="#FEFEFD" fill-opacity="0.40000001" d="M711.372 561.098C718.474 563.425 725.874 565.46 732.821 568.183C732.919 569.89 732.639 570.244 731.557 571.546C729.82 573.637 727.346 575.441 726.907 578.305C724.391 578.018 721.199 576.534 718.863 575.565C720.685 575.327 722.062 575.111 723.284 573.726L722.899 572.695C722.413 572.401 721.808 571.975 721.242 571.823C720.048 571.503 719.298 571.82 718.29 572.401C717.762 573.962 718.054 574.09 718.7 575.541C714.707 574.762 710.683 573.111 706.849 571.776C707.671 571.527 708.725 571.285 709.458 570.843C712.815 568.821 710.439 564.649 711.184 561.633C711.229 561.449 711.309 561.276 711.372 561.098Z"/><path fill="#FEFEFD" fill-opacity="0.75294119" d="M694.133 677.255C700.997 679.489 707.863 681.912 714.792 683.923C718.236 690.928 714.362 691.183 716.435 696.363C711.6 694.854 706.778 693.301 701.971 691.704C703.641 690.323 705.244 690.813 706.859 689.516C705.895 685.965 697.854 684.436 695.402 681.448C694.333 680.145 693.904 678.951 694.133 677.255Z"/><path fill="#FEFEFD" fill-opacity="0.26666668" d="M696.244 556.208C701.254 557.89 706.264 559.74 711.372 561.098C711.309 561.276 711.229 561.449 711.184 561.633C710.439 564.649 712.815 568.821 709.458 570.843C708.725 571.285 707.671 571.527 706.849 571.776L701.958 570.261C702.493 569.297 702.386 569.648 702.625 568.715C703.879 563.825 704.271 566.392 707.129 563.792C706.917 563.714 706.717 563.589 706.494 563.559C705.772 563.461 700.649 564.193 700.091 564.568C699.658 564.859 699.417 565.364 699.079 565.762C697.881 564.906 697.055 564.525 695.636 564.13C693.57 564.607 693.136 565.19 691.956 566.971L690.234 566.624C690.226 566.13 690.2 566.016 690.331 565.466C690.998 562.656 692.602 560.597 694.947 559.003C695.674 558.509 696.176 558.15 696.722 557.433L696.244 556.208Z"/><path fill="#FEFEFD" fill-opacity="0.39607844" d="M633.644 590.103C635.997 590.458 636.649 590.584 638.777 589.316C639.322 591.772 639.435 593.357 640.627 595.714L641.117 595.807C640.868 597.154 640.607 598.754 641.535 599.908C641.779 600.211 642.024 600.374 642.323 600.601L642.847 600.21C642.383 601.894 642.021 603.79 641.22 605.337C641.127 605.303 641.04 605.243 640.941 605.235C640.613 605.209 640.284 605.235 639.955 605.235C639.816 605.082 639.162 604.351 639.016 604.238C638.865 604.122 638.676 604.065 638.507 603.978L638.656 603.876C638.381 604.005 638.102 604.129 637.829 604.263C636.447 604.942 635.532 605.828 635.089 607.326C635.002 607.622 634.927 607.922 634.847 608.22L634.488 608.383C633.883 607.622 633.311 606.963 632.574 606.327L630.186 607.635C630.164 606.048 629.95 604.53 629.72 602.961C631.097 598.696 632.405 594.41 633.644 590.103Z"/><path fill="#FEFEFD" fill-opacity="0.45490196" d="M627.633 533.376L630.371 534.376C630.778 536.116 630.978 537.116 632.349 538.315C634.332 539.164 636.376 539.079 638.499 539.15C639.308 541.191 640.698 543.712 640.45 545.924C638.383 547.858 635.954 547.015 633.36 547.613C630.03 546.9 626.554 545.33 623.32 544.196C624.697 543.986 624.952 543.822 626.065 542.968C626.916 540.855 625.341 538.304 625.574 536.004C625.719 534.578 626.547 534.096 627.633 533.376Z"/><path fill="#FEFEFD" fill-opacity="0.24313726" d="M554.327 522.025C552.892 520.35 550.363 521.137 549.081 518.635C548.106 516.732 547.615 514.369 548.284 512.308C550.995 509.973 554.518 512.967 558.01 511.387C558.168 511.315 558.324 511.239 558.48 511.165C557.611 512.507 556.695 513.617 556.694 515.282C559.105 518.216 564.797 515.739 564.332 521.077C564.21 522.483 563.222 523.706 562.431 524.823C559.743 524.024 556.779 523.402 554.327 522.025Z"/><path fill="#FEFEFD" fill-opacity="0.34509805" d="M558.642 510.121C560.822 512.962 567.936 513.783 571.202 515.263L571.902 516.776C571.535 517.686 571.168 518.59 570.855 519.521L571.371 520.013C570.716 522.297 570.176 524.626 569.159 526.771C569.143 526.806 569.149 526.847 569.144 526.884L562.431 524.823C563.222 523.706 564.21 522.483 564.332 521.077C564.797 515.739 559.105 518.216 556.694 515.282C556.695 513.617 557.611 512.507 558.48 511.165L558.642 510.121Z"/><path fill="#FEFEFD" fill-opacity="0.3019608" d="M615.765 650.859L616.73 650.762C617.618 650.666 618.367 650.477 619.217 650.215C620.417 649.846 621.131 649.884 622.362 650.067C623.773 650.956 624.461 651.683 625.548 652.928C625.612 653.001 625.692 653.059 625.764 653.125L626.385 654.452C626.17 654.453 625.956 654.465 625.741 654.456C624.897 654.419 624.376 654.277 623.585 654.066C621.592 653.535 619.583 653.395 617.717 654.387C616.643 655.639 616.531 656.645 616.301 658.209C616.518 658.817 616.471 659.245 617.129 659.517C619.225 660.382 622.176 659.203 624.583 659.839C626.621 658.963 626.87 657.915 627.8 656.043L628.629 655.488C628.378 656.755 628.187 658.278 627.114 659.137C624.961 660.86 618.952 660.543 618.039 663.308C615.889 662.759 613.925 662.115 611.894 661.219C613.466 658.251 610.389 653.699 612.616 650.339L614.957 649.867L615.765 650.859Z"/><path fill="#FEFEFD" fill-opacity="0.52941179" d="M656.468 521.62L657.693 521.458C659.274 522.829 659.129 524.406 660.227 526.092C661.098 525.449 661.37 524.748 661.871 523.833C662.216 523.205 662.076 523.434 662.687 522.866C663.932 524.699 665.099 526.47 666.055 528.479C664.951 532.161 663.083 536.599 662.952 540.411C662.435 539.867 661.95 539.451 661.31 539.056C653.903 534.485 660.63 531.612 655.521 524.23L656.468 521.62Z"/><path fill="#FEFEFD" fill-opacity="0.42352942" d="M633.644 590.103C635.219 585.766 636.487 581.275 637.879 576.874C638.483 578.866 638.945 581.398 640.741 582.624C642.463 582.616 642.988 582.192 644.239 580.954C644.413 580.782 644.578 580.602 644.747 580.426C644.971 581.428 645.304 582.526 645.422 583.539C645.715 586.058 643.203 589.412 644.178 591.817L643.287 591.345C642.279 592.774 641.724 594.172 641.117 595.807L640.627 595.714C639.435 593.357 639.322 591.772 638.777 589.316C636.649 590.584 635.997 590.458 633.644 590.103Z"/><path fill="#FEFEFD" fill-opacity="0.627451" d="M690.526 676.142L694.133 677.255C693.904 678.951 694.333 680.145 695.402 681.448C697.854 684.436 705.895 685.965 706.859 689.516C705.244 690.813 703.641 690.323 701.971 691.704C697.959 690.705 693.946 689.052 690.022 687.716C691.51 687.457 692.802 687.268 693.862 686.103C693.863 683.913 692.309 682.526 691.219 680.702C690.282 679.133 690.051 677.849 690.526 676.142Z"/><path fill="#FEFEFD" fill-opacity="0.37254903" d="M718.774 673.336C719.276 674.321 719.857 675.028 720.556 675.871C722.673 678.42 724.1 681.274 725.407 684.301C726.228 684.789 725.871 684.754 726.385 684.749C725.763 686.819 725.257 689.073 724.269 690.998C722.467 692.213 720.489 693.548 719.876 695.744C720.064 696.424 720.165 696.829 720.576 697.415L717.989 696.906C717.795 696.225 717.629 695.437 717.659 694.727C717.804 691.22 722.35 690.812 724.105 688.754C724.594 688.181 724.605 687.498 724.528 686.771C724.393 685.504 723.551 684.189 722.677 683.327C720.726 682.992 719.797 684.262 717.989 684.667C716.656 684.966 716.261 684.482 715.269 683.747L718.774 673.336Z"/><path fill="#FEFEFD" fill-opacity="0.43137255" d="M695.653 555.964L696.244 556.208L696.722 557.433C696.176 558.15 695.674 558.509 694.947 559.003C692.602 560.597 690.998 562.656 690.331 565.466C690.2 566.016 690.226 566.13 690.234 566.624C686.93 565.007 682.941 564.088 679.426 562.947L679.195 562.547C682.443 556.221 689.258 559.507 695.653 555.964Z"/><path fill="#FEFEFD" fill-opacity="0.66274512" d="M655.521 524.23C660.63 531.612 653.903 534.485 661.31 539.056C661.95 539.451 662.435 539.867 662.952 540.411L662.179 540.853C660.938 540.598 660.946 540.646 659.828 541.26L659.477 541.956C657.651 542.15 655.811 542.33 654.25 541.171C652.455 539.837 652.603 535.937 652.332 533.899C653.026 530.701 654.478 527.355 655.521 524.23Z"/><path fill="#FEFEFD" fill-opacity="0.34117648" d="M688.573 675.643L690.526 676.142C690.051 677.849 690.282 679.133 691.219 680.702C692.309 682.526 693.863 683.913 693.862 686.103C692.802 687.268 691.51 687.457 690.022 687.716C687.71 686.965 685.414 686.161 683.138 685.304L683.947 684.657C684.096 683.55 684.229 682.511 684.221 681.391C684.21 680 683.989 678.416 684.935 677.252C686.043 675.89 686.986 675.937 688.573 675.643Z"/><path fill="#FEFEFD" fill-opacity="0.13725491" d="M625.052 532.737L627.633 533.376C626.547 534.096 625.719 534.578 625.574 536.004C625.341 538.304 626.916 540.855 626.065 542.968C624.952 543.822 624.697 543.986 623.32 544.196L622.428 543.695C622.411 543.078 622.288 542.494 622.183 541.886C621.651 541.567 621.124 541.235 620.588 540.919C618.747 539.833 617.013 538.622 616.109 536.595C615.763 535.82 615.992 535.666 616.236 534.925C618.872 532.83 621.833 532.615 625.052 532.737Z"/><path fill="#FEFEFD" fill-opacity="0.19215687" d="M662.673 511.457C664.121 510.346 664.257 510.068 666.152 510.033C667.239 511.203 667.631 512.314 667.587 513.936C667.51 516.755 666.592 519.798 665.608 522.424C665.86 523.878 666.157 525.291 666.504 526.725L666.055 528.479C665.099 526.47 663.932 524.699 662.687 522.866C662.649 521.978 662.634 521.375 662.22 520.567C661.689 519.532 661.092 518.447 660.79 517.313C660.174 515.005 661.517 513.322 662.673 511.457Z"/><path fill="#FEFEFD" fill-opacity="0.63529414" d="M685.518 552.383C688.917 553.518 692.296 554.712 695.653 555.964C689.258 559.507 682.443 556.221 679.195 562.547L679.426 562.947L676.487 562.363C677.881 560.682 678.429 558.675 679.143 556.643C681.174 555.163 684.349 554.514 685.518 552.383Z"/><path fill="#FEFEFD" fill-opacity="0.91764706" d="M659.477 541.956L659.828 541.26C660.946 540.646 660.938 540.598 662.179 540.853C661.797 542.452 661.367 542.932 662.206 544.397C665.798 546.627 669.973 546.986 673.824 548.631C672.304 548.964 670.769 549.004 669.219 549.06C668.506 549.085 667.161 550.112 666.388 550.366C664.677 550.929 658.985 549.315 657.283 548.551C656.24 548.083 656.56 548.424 656.201 547.428C656.562 545.785 657.4 545.174 658.612 544.125C659.375 543.466 659.27 542.92 659.477 541.956Z"/><path fill="#FEFEFD" fill-opacity="0.11764706" d="M719.23 672.37L719.825 673.049C721.722 672.103 722.742 670.353 723.834 668.601L725.787 667.607C726.67 668.004 726.454 667.707 726.77 668.594C728.607 673.739 724.236 678.521 726.522 683.93L726.385 684.749C725.871 684.754 726.228 684.789 725.407 684.301C724.1 681.274 722.673 678.42 720.556 675.871C719.857 675.028 719.276 674.321 718.774 673.336L719.23 672.37Z"/><path fill="#FEFEFD" fill-opacity="0.53725493" d="M715.269 683.747C716.261 684.482 716.656 684.966 717.989 684.667C719.797 684.262 720.726 682.992 722.677 683.327C723.551 684.189 724.393 685.504 724.528 686.771C724.605 687.498 724.594 688.181 724.105 688.754C722.35 690.812 717.804 691.22 717.659 694.727C717.629 695.437 717.795 696.225 717.989 696.906L716.435 696.363C714.362 691.183 718.236 690.928 714.792 683.923L715.269 683.747Z"/><path fill="#FEFEFD" fill-opacity="0.9137255" d="M654.771 562.939L654.119 561.477C654.26 560.621 654.503 559.63 654.488 558.766C654.454 556.786 652.883 555.865 651.597 554.53C653.903 553.883 661.927 552.751 663.501 554.378C664.538 555.45 665.12 557.005 666.419 557.823C668.163 558.923 670.863 558.716 672.815 559.231C674.379 559.644 675.108 560.472 675.946 561.785C669.672 559.954 663.458 557.931 657.191 556.087L654.771 562.939Z"/><path fill="#FEFEFD" fill-opacity="0.13333334" d="M638.656 603.876L638.507 603.978C638.676 604.065 638.865 604.122 639.016 604.238C639.162 604.351 639.816 605.082 639.955 605.235C640.284 605.235 640.613 605.209 640.941 605.235C641.04 605.243 641.127 605.303 641.22 605.337C638.8 613.929 636.403 623.185 633.136 631.479C632.559 631.244 631.863 631.211 631.248 631.117C633.051 624.171 639.118 610.173 638.656 603.876Z"/><path fill="#FEFEFD" fill-opacity="0.2" d="M583.164 519.951L584.172 520.603C584.194 522.249 583.449 523.514 582.98 525.039C581.357 526.358 579.367 527.65 578.44 529.57C575.867 529.161 573.026 527.996 570.499 527.255C570.64 526.369 571.066 525.737 571.484 524.954C574.287 523.243 576.982 524.985 579.724 523.946C581.735 523.184 582.369 521.797 583.164 519.951Z"/><path fill="#FEFEFD" fill-opacity="0.27058825" d="M571.371 520.013C575.308 519.905 579.226 519.796 583.164 519.951C582.369 521.797 581.735 523.184 579.724 523.946C576.982 524.985 574.287 523.243 571.484 524.954C571.066 525.737 570.64 526.369 570.499 527.255L569.144 526.884C569.149 526.847 569.143 526.806 569.159 526.771C570.176 524.626 570.716 522.297 571.371 520.013Z"/><path fill="#FEFEFD" fill-opacity="0.06666667" d="M621.687 628.379C622.033 630.612 621.946 631.744 621.159 633.832C620.651 635.179 619.341 637.796 619.65 639.094C620.482 642.594 620.519 644.528 618.583 647.639C617.816 648.871 616.803 649.858 615.765 650.859L614.957 649.867C616.494 642.575 619.259 635.415 621.687 628.379Z"/><path fill="#FEFEFD" fill-opacity="0.42745098" d="M626.641 653.111C627.225 654.556 627.646 654.793 629.112 655.435L628.629 655.488L627.8 656.043C626.505 655.271 626.491 655.257 625.001 655.472C623.841 656.348 623.791 656.492 623.316 657.875C623.625 658.805 623.833 659.202 624.583 659.839C622.176 659.203 619.225 660.382 617.129 659.517C616.471 659.245 616.518 658.817 616.301 658.209C616.531 656.645 616.643 655.639 617.717 654.387C619.583 653.395 621.592 653.535 623.585 654.066C624.376 654.277 624.897 654.419 625.741 654.456C625.956 654.465 626.17 654.453 626.385 654.452L626.641 653.111Z"/><path fill="#FEFEFD" fill-opacity="0.14901961" d="M661.398 511.073L662.673 511.457C661.517 513.322 660.174 515.005 660.79 517.313C661.092 518.447 661.689 519.532 662.22 520.567C662.634 521.375 662.649 521.978 662.687 522.866C662.076 523.434 662.216 523.205 661.871 523.833C661.37 524.748 661.098 525.449 660.227 526.092C659.129 524.406 659.274 522.829 657.693 521.458L656.468 521.62C657.566 518.765 658.193 515.564 659.188 512.633L659.617 513.167C660.257 512.499 660.824 511.798 661.398 511.073Z"/><path fill="#FEFEFD" fill-opacity="0.050980393" d="M661.398 511.073L662.945 508.108C664.145 507.834 665.124 509.166 665.62 508.446C666.091 507.764 666.173 507.124 666.329 506.33C668.119 509.13 668.688 512.986 669.841 516.129L666.504 526.725C666.157 525.291 665.86 523.878 665.608 522.424C666.592 519.798 667.51 516.755 667.587 513.936C667.631 512.314 667.239 511.203 666.152 510.033C664.257 510.068 664.121 510.346 662.673 511.457L661.398 511.073Z"/><path fill="#FEFEFD" fill-opacity="0.16862746" d="M571.202 515.263C574.867 516.341 578.646 517.299 582.174 518.769L583.164 519.951C579.226 519.796 575.308 519.905 571.371 520.013L570.855 519.521C571.168 518.59 571.535 517.686 571.902 516.776L571.202 515.263Z"/><path fill="#FEFEFD" fill-opacity="0.29411766" d="M699.079 565.762C699.417 565.364 699.658 564.859 700.091 564.568C700.649 564.193 705.772 563.461 706.494 563.559C706.717 563.589 706.917 563.714 707.129 563.792C704.271 566.392 703.879 563.825 702.625 568.715C702.386 569.648 702.493 569.297 701.958 570.261L696.549 568.418C697.628 567.774 698.295 566.732 699.079 565.762Z"/><path fill="#FEFEFD" fill-opacity="0.38431373" d="M644.747 580.426L644.704 579.38C645.486 579.84 645.544 580.008 646.04 580.73C646.721 581.723 647.261 582.188 648.271 582.819C647.018 586.683 645.785 590.555 644.572 594.433L644.178 591.817C643.203 589.412 645.715 586.058 645.422 583.539C645.304 582.526 644.971 581.428 644.747 580.426Z"/><path fill="#FEFEFD" fill-opacity="0.2" d="M641.117 595.807C641.724 594.172 642.279 592.774 643.287 591.345L644.178 591.817L644.572 594.433L642.847 600.21L642.323 600.601C642.024 600.374 641.779 600.211 641.535 599.908C640.607 598.754 640.868 597.154 641.117 595.807Z"/><path fill="#FEFEFD" fill-opacity="0.18431373" d="M691.956 566.971C693.136 565.19 693.57 564.607 695.636 564.13C697.055 564.525 697.881 564.906 699.079 565.762C698.295 566.732 697.628 567.774 696.549 568.418L691.956 566.971Z"/><path fill="#FEFEFD" fill-opacity="0.33725491" d="M718.7 575.541C718.054 574.09 717.762 573.962 718.29 572.401C719.298 571.82 720.048 571.503 721.242 571.823C721.808 571.975 722.413 572.401 722.899 572.695L723.284 573.726C722.062 575.111 720.685 575.327 718.863 575.565L718.7 575.541Z"/><path fill="#FEFEFD" fill-opacity="0.20784314" d="M720.576 697.415C720.165 696.829 720.064 696.424 719.876 695.744C720.489 693.548 722.467 692.213 724.269 690.998C723.587 693.239 723.086 695.741 721.657 697.627L720.576 697.415Z"/><path fill="#FEFEFD" fill-opacity="0.50980395" d="M624.583 659.839C623.833 659.202 623.625 658.805 623.316 657.875C623.791 656.492 623.841 656.348 625.001 655.472C626.491 655.257 626.505 655.271 627.8 656.043C626.87 657.915 626.621 658.963 624.583 659.839Z"/><path fill="#FEFEFD" fill-opacity="0.69803923" d="M649.107 579.965L647.714 579.398C646.88 578.453 646.725 577.938 646.55 576.697C647.007 575.601 646.762 575.631 647.935 575.088C649.381 575.74 649.394 576.09 650.131 577.44L649.107 579.965Z"/><defs><linearGradient id="gradient_1" gradientUnits="userSpaceOnUse" x1="769.06348" y1="842.42029" x2="739.04816" y2="813.21527"><stop offset="0" stop-color="#FDFDFB" stop-opacity="0.34117648"/><stop offset="1" stop-color="#FCFBF8" stop-opacity="0.43137255"/></linearGradient></defs><path fill="url(#gradient_1)" d="M782.247 809.012C787.553 807.858 791.229 809.806 794.914 804.697C796.091 804.254 796.795 804.123 798.05 804.219C799.136 805.091 799.47 805.508 799.849 806.853C799.424 808.97 798.18 809.988 796.449 811.15C793.349 813.23 789.072 814.056 787.093 817.374L786.019 817.472L785.231 818.563C785.449 819.574 785.678 819.938 786.202 820.807C786.784 821.772 787.076 822.67 787.555 823.652C787.729 824.007 788.118 824.548 788.354 824.889C778.497 830.17 768.226 834.628 758.371 839.916C757.633 839.469 756.86 839.043 756.137 838.576C755.181 837.958 754.816 837.38 754.199 836.457C754.032 835.055 753.79 834.561 754.753 833.397C756.132 831.73 759.509 831.15 761.403 830.173C759.798 829.744 758.447 830.391 756.868 830.667C753.453 831.264 748.231 835.718 745.643 838.02C744.499 837.961 742.937 837.548 742.053 838.297C742.928 838.61 743.728 838.759 744.648 838.887L745.118 839.383C744.275 840.202 744.034 840.153 742.937 840.471C739.856 841.363 738.542 843.925 735.714 845.122C729.375 847.805 726.635 845.03 719.48 849.444C717.587 850.612 715.665 851.529 714.09 853.137C713.514 853.053 712.765 852.997 712.203 852.809C710.818 852.345 710.672 852.083 709.926 850.898C709.91 849.559 709.946 848.642 710.43 847.384C710.664 846.777 710.904 846.207 711.071 845.577C711.514 843.917 712.111 842.426 712.796 840.85L713.138 840.415C714.01 840.873 714.147 840.909 715.198 840.919C716.524 839.193 717.962 838.471 720.022 837.863C721.281 837.492 722.283 837.156 723.425 836.514C724.013 835.318 724.101 835.073 724.023 833.749L723.374 833.658L721.125 835.469L720.878 835.195C723.356 830.73 730.954 826.455 735.481 824.111L735.417 823.273C737.741 821.616 740.738 820.235 743.427 819.31C745.159 819.544 745.856 819.348 747.302 818.423C747.429 818.342 747.554 818.258 747.679 818.175C748.097 819.417 748.388 820.054 749.345 820.959C752.867 820.101 756.335 818.502 759.782 817.343C767.554 814.729 775.012 813.103 782.247 809.012Z"/><defs><linearGradient id="gradient_2" gradientUnits="userSpaceOnUse" x1="742.96313" y1="849.91296" x2="740.88934" y2="838.52289"><stop offset="0" stop-color="#FEFCFD" stop-opacity="0.28235295"/><stop offset="1" stop-color="#FEFEFB" stop-opacity="0.39215687"/></linearGradient></defs><path fill="url(#gradient_2)" d="M714.09 853.137C715.665 851.529 717.587 850.612 719.48 849.444C726.635 845.03 729.375 847.805 735.714 845.122C738.542 843.925 739.856 841.363 742.937 840.471C744.034 840.153 744.275 840.202 745.118 839.383L744.648 838.887C743.728 838.759 742.928 838.61 742.053 838.297C742.937 837.548 744.499 837.961 745.643 838.02C748.231 835.718 753.453 831.264 756.868 830.667C758.447 830.391 759.798 829.744 761.403 830.173C759.509 831.15 756.132 831.73 754.753 833.397C753.79 834.561 754.032 835.055 754.199 836.457C754.816 837.38 755.181 837.958 756.137 838.576C756.86 839.043 757.633 839.469 758.371 839.916C751.593 843.194 744.851 846.548 738.148 849.977C735.439 851.345 732.373 853.349 729.514 854.237C729.273 854.088 729.047 853.914 728.793 853.79C725.557 852.204 721.552 855.887 718.323 856.813C714.424 857.931 688.571 864.116 686.764 863.104C690.845 861.18 695.812 860.676 699.669 858.573C704.622 855.873 709.803 855.454 713.583 853.455C713.759 853.361 713.921 853.243 714.09 853.137Z"/><path fill="#FEFEFD" fill-opacity="0.29019609" d="M756.491 812.829C757.324 813.015 758.12 813.218 758.982 813.076C763.768 812.288 780.924 805.333 786.32 803.017C791.674 800.718 797.461 797.179 803.308 796.509C804.681 796.352 805.954 795.763 807.287 795.774C805.011 797.285 802.404 798.036 800.275 799.82C796.058 803.351 784.314 806.894 782.745 808.462C782.57 808.637 782.413 808.829 782.247 809.012C775.012 813.103 767.554 814.729 759.782 817.343C756.335 818.502 752.867 820.101 749.345 820.959C748.388 820.054 748.097 819.417 747.679 818.175C747.554 818.258 747.429 818.342 747.302 818.423C745.856 819.348 745.159 819.544 743.427 819.31C747.745 817.078 752.101 814.917 756.491 812.829Z"/><path fill="#FEFEFD" fill-opacity="0.17254902" d="M787.093 817.374C787.773 817.758 787.455 817.667 788.315 817.737C789.569 817.838 789.413 818.045 790.218 818.945C789.08 819.866 788.484 819.989 788.281 821.478C790.117 821.554 791.22 820.131 793.056 819.98L793.999 820.809C795.152 820.81 794.93 820.998 795.903 820.136L795.832 818.482C797.351 817 799.818 816.56 801.701 815.534L801.941 814.656C801.371 813.83 800.847 813.04 800.4 812.14C800.519 811.467 800.521 811.263 800.817 810.583C801.31 809.452 803.085 808.102 804.243 807.75C805.635 807.327 805.898 807.441 807.117 808.054C811.34 805.56 814.639 801.668 819.318 799.81C819.88 802.007 805.57 811.83 804.407 815.932L804.601 816.74C799.342 819.662 793.812 822.359 788.354 824.889C788.118 824.548 787.729 824.007 787.555 823.652C787.076 822.67 786.784 821.772 786.202 820.807C785.678 819.938 785.449 819.574 785.231 818.563L786.019 817.472L787.093 817.374Z"/><path fill="#FEFEFD" fill-opacity="0.10588235" d="M704.723 838.157C707.103 836.778 709.731 835.76 712.244 834.645C711.893 835.98 711.837 836.262 712.18 837.588L712.642 839.124L711.362 841.267C708.262 845.105 700.851 848.573 696.119 850.077C693.12 851.031 691.051 854.56 688.366 854.851C688.42 854.537 688.411 854.205 688.527 853.908C689.575 851.24 699.654 843.197 702.434 841.742C703.214 841.334 703.66 841.164 704.313 840.521C704.958 839.887 704.705 839.01 704.723 838.157Z"/><path fill="#638A42" fill-opacity="0.95686275" d="M650.04 856.397C651.432 856.179 652.788 855.859 654.192 856.126C654.719 857.26 654.523 856.688 654.801 857.836C655.733 857.751 655.787 857.903 656.498 857.224C657.814 855.968 658.804 855.048 660.501 854.375L660.986 854.891C660.715 856.013 660.446 856.709 659.835 857.692C659.125 858.835 659.038 859.556 658.949 860.884C654.987 862.868 651.013 864.829 647.028 866.766C647.646 863.502 645.567 864.556 644.891 861.988C645.334 860.835 645.847 859.91 645.433 858.668C646.753 857.74 648.57 857.1 650.04 856.397Z"/><path fill="#FEFEFD" fill-opacity="0.26666668" d="M735.417 823.273L735.481 824.111C730.954 826.455 723.356 830.73 720.878 835.195L721.125 835.469L723.374 833.658L724.023 833.749C724.101 835.073 724.013 835.318 723.425 836.514C722.283 837.156 721.281 837.492 720.022 837.863C717.962 838.471 716.524 839.193 715.198 840.919C715.332 839.186 716.358 837.66 716.148 835.969C714.595 835.958 713.524 836.851 712.18 837.588C711.837 836.262 711.893 835.98 712.244 834.645C716.792 831.05 729.575 825.885 735.417 823.273Z"/><path fill="#FEFEFD" fill-opacity="0.28235295" d="M712.18 837.588C713.524 836.851 714.595 835.958 716.148 835.969C716.358 837.66 715.332 839.186 715.198 840.919C714.147 840.909 714.01 840.873 713.138 840.415L712.796 840.85L711.362 841.267L712.642 839.124L712.18 837.588Z"/></svg>